<?xml version="1.0" encoding="UTF-8" standalone="no"?>
<!-- Created with Inkscape (http://www.inkscape.org/) -->

<svg
   version="1.1"
   id="svg22332"
   width="299.94266"
   height="291.59033"
   viewBox="0 0 299.94266 291.59033"
   sodipodi:docname="中央研究院.svg"
   inkscape:version="1.2.1 (9c6d41e410, 2022-07-14)"
   xmlns:inkscape="http://www.inkscape.org/namespaces/inkscape"
   xmlns:sodipodi="http://sodipodi.sourceforge.net/DTD/sodipodi-0.dtd"
   xmlns="http://www.w3.org/2000/svg"
   xmlns:svg="http://www.w3.org/2000/svg">
  <defs
     id="defs22336">
    <clipPath
       clipPathUnits="userSpaceOnUse"
       id="clipPath22346">
      <path
         d="M 0,841.89 H 595.28 V 0 H 0 Z"
         id="path22344" />
    </clipPath>
    <clipPath
       clipPathUnits="userSpaceOnUse"
       id="clipPath22574">
      <path
         d="M 0,841.89 H 595.28 V 0 H 0 Z"
         id="path22572" />
    </clipPath>
    <clipPath
       clipPathUnits="userSpaceOnUse"
       id="clipPath22616">
      <path
         d="M 0,841.89 H 595.28 V 0 H 0 Z"
         id="path22614" />
    </clipPath>
  </defs>
  <sodipodi:namedview
     id="namedview22334"
     pagecolor="#ffffff"
     bordercolor="#000000"
     borderopacity="0.25"
     inkscape:showpageshadow="2"
     inkscape:pageopacity="0.0"
     inkscape:pagecheckerboard="0"
     inkscape:deskcolor="#d1d1d1"
     showgrid="false"
     inkscape:zoom="2.0359273"
     inkscape:cx="347.99868"
     inkscape:cy="187.87508"
     inkscape:window-width="1920"
     inkscape:window-height="991"
     inkscape:window-x="-9"
     inkscape:window-y="-9"
     inkscape:window-maximized="1"
     inkscape:current-layer="g22338" />
  <g
     id="g22338"
     inkscape:groupmode="layer"
     inkscape:label="VI4print"
     transform="matrix(1.3333333,0,0,-1.3333333,611.88242,887.27262)">
    <g
       id="g22340"
       transform="matrix(0.59539525,0,0,0.57880644,-521.29698,286.91906)"
       style="stroke-width:1.70346">
      <g
         id="g22342"
         clip-path="url(#clipPath22346)"
         style="stroke-width:1.70346">
        <g
           id="g22348"
           transform="translate(482.6074,465.0761)"
           style="stroke-width:1.70346">
          <path
             d="m 0,0 c 0,-104.341 -84.583,-188.917 -188.918,-188.917 -104.332,0 -188.91,84.576 -188.91,188.917 0,104.333 84.578,188.917 188.91,188.917 C -84.583,188.917 0,104.333 0,0"
             style="fill:#215698;fill-opacity:1;fill-rule:nonzero;stroke:none;stroke-width:1.70346"
             id="path22350" />
        </g>
        <g
           id="g22352"
           transform="translate(424.2578,465.5673)"
           style="stroke-width:1.70346">
          <path
             d="m 0,0 c 0,-71.85 -58.24,-130.09 -130.083,-130.09 -71.841,0 -130.085,58.24 -130.085,130.09 0,71.84 58.244,130.081 130.085,130.081 C -58.24,130.081 0,71.84 0,0"
             style="fill:#d7ceb5;fill-opacity:1;fill-rule:nonzero;stroke:none;stroke-width:1.70346"
             id="path22354" />
        </g>
        <g
           id="g22356"
           transform="translate(247.6313,571.624)"
           style="stroke-width:1.70346">
          <path
             d="m 0,0 c 0.98,-0.189 2.155,0 2.742,-0.78 0,-1.368 -2.347,-1.175 -1.173,-2.543 0.586,0 0.781,0.78 0.978,1.368 2.743,0.785 1.371,-3.525 3.916,-3.525 0,-1.758 1.565,-3.718 0.975,-5.481 0,-0.587 0.98,-0.784 0.59,-1.368 -0.59,0 -1.175,-0.39 -1.368,-0.784 0.193,-1.566 2.15,-0.39 2.935,-1.369 2.935,0 5.48,2.737 9.005,2.153 2.153,0.584 4.893,0.584 7.048,0.584 1.758,-0.781 0.78,-2.346 2.15,-3.131 -0.585,-0.78 -1.565,-1.368 -2.543,-1.175 -0.979,0.978 -2.154,-0.78 -3.132,-1.368 v -0.197 c 0,-0.587 0.783,-0.197 0.978,-0.197 0.392,-1.171 -0.586,-1.368 -1.371,-1.956 -1.172,0 -0.392,1.566 -1.564,1.372 -2.548,-0.394 -6.461,0.584 -8.026,-2.349 -0.98,0.587 -2.155,0.193 -3.133,-0.197 -1.955,-1.956 0.194,-4.701 -1.76,-6.656 l 0.191,-2.35 c -0.778,-1.565 -2.933,-2.937 -2.348,-4.696 0.588,-2.546 -3.521,-4.112 -0.195,-6.265 -1.175,-2.349 0.588,-3.525 0.195,-5.677 -0.388,0 -0.388,-0.197 -0.585,-0.391 l 0.785,-0.587 c -0.588,-0.197 -0.98,-0.197 -1.372,-0.394 0,-0.584 0.587,0 0.392,-0.584 -0.198,0 -0.59,-0.201 -0.785,-0.394 0.587,0 0.785,-0.193 1.177,-0.587 0.193,1.565 1.958,0.981 2.935,1.372 0.781,-0.198 1.173,-0.978 1.958,0 0.585,-0.592 -0.195,-1.763 0.585,-2.153 0.198,2.346 3.525,0 3.525,1.955 1.37,-0.193 2.155,1.763 3.328,0.391 1.763,0.591 3.72,1.762 5.482,1.372 0.391,1.368 2.936,-0.781 2.155,1.175 l -0.785,-0.197 c -0.197,0.197 0,0.591 -0.197,0.784 0.391,-0.193 0.588,0.193 0.982,0.39 0,0.395 -0.199,0.781 -0.591,0.983 -0.194,-0.202 -0.391,0 -0.785,0 -0.193,0.193 0,0.583 -0.193,0.977 1.957,0.978 2.35,-1.179 3.525,-1.762 0.392,-1.96 -2.155,-2.157 -1.371,-3.915 -0.784,-0.785 -0.585,-2.153 -1.762,-2.547 0.195,-0.194 0.392,-0.391 0.195,-0.584 l -0.782,-0.394 0.195,-0.785 c -1.763,0.395 -3.131,-1.956 -4.895,-0.978 -1.368,-1.368 -3.915,-1.565 -5.086,-3.327 -1.57,-1.96 -3.525,-0.978 -5.287,-2.35 -0.98,0 -1.761,-0.193 -2.35,0.39 -1.173,-0.78 -2.543,-1.368 -3.914,-0.973 -0.977,0.193 -2.154,0.78 -1.762,2.152 0.785,0.781 -0.195,2.149 1.173,2.74 -0.195,1.175 -1.957,0.785 -1.957,1.956 -0.785,-0.588 -0.978,-1.956 -1.566,-2.74 -0.585,-0.785 0.781,-2.153 -0.585,-2.35 0.585,-0.583 1.565,-0.391 2.543,-0.785 -0.781,-0.973 0.782,-3.718 -1.565,-3.718 -1.175,0.785 -3.33,0 -3.918,1.762 -0.193,1.956 2.155,2.35 1.958,4.306 1.762,2.157 0.982,6.853 4.895,6.072 0.392,0.197 0.784,0.197 0.98,0.583 -1.173,-0.193 -1.173,0.978 -2.153,1.179 -0.589,1.369 0,2.934 -0.392,4.503 -0.197,1.763 2.742,1.565 1.76,3.521 0.197,-0.193 0.393,0.197 0.589,0.197 -0.784,0.588 -0.589,1.758 -0.196,2.35 0.392,0.193 0.977,0.587 1.369,0.978 -0.195,0.39 -0.977,0 -0.78,0.977 0.388,0.978 2.543,0.588 1.758,2.153 -2.543,1.372 -0.585,4.31 -1.173,6.659 0.393,1.759 -0.585,3.328 -0.585,4.889 -1.962,-0.39 -3.724,-0.583 -5.482,-1.175 -2.351,0 -4.306,-1.175 -6.461,-1.955 -1.175,0.39 1.958,3.327 -0.785,1.955 0,-0.193 0,-0.78 -0.782,-0.583 -0.975,0.78 0.198,1.758 0.198,2.543 2.152,0.588 2.935,3.915 5.675,2.74 2.155,0.978 5.675,0.978 6.267,3.525 0.977,0.784 0.193,2.547 0.388,3.915 -2.543,1.955 -2.742,5.287 -4.305,8.028 C -3.128,-1.955 -4.11,-0.39 -3.52,1.179 -2.15,0 -0.78,2.157 0,0"
             style="fill:#b3a57c;fill-opacity:1;fill-rule:nonzero;stroke:none;stroke-width:1.70346"
             id="path22358" />
        </g>
        <g
           id="g22360"
           transform="translate(219.7852,515.0039)"
           style="stroke-width:1.70346">
          <path
             d="m 0,0 c 1.957,-0.386 4.305,-0.193 4.892,-2.149 -1.372,-0.587 0,-1.959 -1.172,-2.74 -2.547,2.153 -5.875,0.583 -8.81,1.171 -2.153,-0.588 -6.068,1.175 -7.438,-1.565 0.192,-2.35 1.762,-4.893 0.78,-7.441 0.59,-1.367 0.198,-3.717 1.763,-4.695 -0.978,-1.372 0.197,-2.74 0,-4.31 -0.978,-0.39 -2.351,0 -2.741,0.982 0,0.39 0.198,0.785 -0.195,0.978 -0.978,-0.978 -1.567,0.193 -2.154,0.978 0.979,0.39 0.196,1.569 0,2.35 -0.978,0.784 -0.194,2.157 -1.368,2.937 -0.785,2.153 0.195,4.503 -1.765,6.265 0.59,1.565 -1.758,1.565 -2.543,2.543 -0.392,-0.978 -1.175,-1.372 -1.958,-0.781 -0.39,0.194 -0.784,0.391 -1.174,0.194 -0.98,-0.588 -2.543,-0.588 -3.913,-0.785 -1.178,0.591 -3.135,1.372 -4.503,0 -0.588,0.197 0.195,1.372 -0.588,1.569 1.37,0 2.151,1.57 3.521,1.956 2.155,-0.386 3.525,1.96 5.873,1.372 2.153,0.39 4.897,0.588 7.245,0 l 0.78,0.785 -0.78,0.78 c 0.979,0.587 1.76,-0.394 2.545,-0.587 2.153,0.977 5.872,-0.781 7.438,1.569 C -4.7,-0.583 -1.763,1.569 0,0"
             style="fill:#b3a57c;fill-opacity:1;fill-rule:nonzero;stroke:none;stroke-width:1.70346"
             id="path22362" />
        </g>
        <g
           id="g22364"
           transform="translate(228.5952,511.6801)"
           style="stroke-width:1.70346">
          <path
             d="M 0,0 C -0.982,-1.959 0.585,-4.112 0.193,-5.875 1.955,-8.225 -1.57,-9.786 0,-11.75 c -0.2,-0.78 0,-1.758 -0.785,-2.345 1.37,-0.785 -0.588,-1.566 -0.392,-2.74 0,-3.525 -3.328,-5.481 -5.483,-8.221 0.198,-0.39 0.395,-0.588 0.395,-0.982 -1.568,0 -1.958,-1.171 -2.545,-2.153 -1.763,-1.762 -3.718,-2.74 -5.481,-4.502 -1.762,-1.565 -4.896,-3.328 -5.482,-4.893 -1.565,-0.781 -2.155,-1.96 -3.133,-3.328 -1.957,0.785 -3.522,-0.78 -5.289,-0.197 0.199,1.762 2.547,2.547 3.917,3.722 0.785,1.955 4.112,2.149 3.332,4.893 1.759,1.762 -0.392,4.112 1.563,5.678 -0.977,0.78 -0.783,1.959 -1.563,2.937 -0.2,0.785 0,1.565 0.78,1.762 -0.392,0.978 0.198,1.561 0.198,2.346 0.392,0.197 1.173,0.587 1.565,0.197 -0.784,-1.372 1.37,-2.74 0.195,-4.305 1.96,-0.394 -0.39,-2.547 0.982,-3.722 -0.592,-0.588 0.585,-2.35 -0.982,-1.956 -0.783,-0.394 -0.587,-1.372 -0.39,-1.959 0.98,-0.584 1.957,0.39 2.742,0.977 v -0.193 c 1.956,0.781 3.521,2.35 4.891,3.916 0.588,-0.198 0.785,0.39 0.978,0.78 1.569,2.157 3.917,3.919 3.722,6.852 0.39,0.978 1.565,2.351 0.783,3.525 -0.783,2.741 2.935,3.911 1.564,6.656 1.175,0.78 0.391,2.345 1.568,2.937 2.15,0.978 -1.37,3.521 1.565,3.521 0.193,1.372 -2.935,2.35 -0.588,3.134 C -0.982,2.153 0.386,1.368 0,0"
             style="fill:#b3a57c;fill-opacity:1;fill-rule:nonzero;stroke:none;stroke-width:1.70346"
             id="path22366" />
        </g>
        <g
           id="g22368"
           transform="translate(215.085,502.4819)"
           style="stroke-width:1.70346">
          <path
             d="M 0,0 C 0.394,-0.982 -0.39,-1.96 0.587,-2.551 V -6.076 C -0.195,-6.462 -0.98,-7.637 -2.152,-7.247 -3.328,-6.076 -3.523,-4.7 -3.328,-3.135 -2.738,-1.569 -1.368,-0.587 0,0"
             style="fill:#b3a57c;fill-opacity:1;fill-rule:nonzero;stroke:none;stroke-width:1.70346"
             id="path22370" />
        </g>
        <g
           id="g22372"
           transform="translate(207.6494,491.3198)"
           style="stroke-width:1.70346">
          <path
             d="M 0,0 -0.393,-0.781 C -0.982,-0.781 -1.37,0 -1.177,0.785 -0.59,0.785 -0.2,0.587 0,0"
             style="fill:#b3a57c;fill-opacity:1;fill-rule:nonzero;stroke:none;stroke-width:1.70346"
             id="path22374" />
        </g>
        <g
           id="g22376"
           transform="translate(206.4111,425.7568)"
           style="stroke-width:1.70346">
          <path
             d="m 0,0 c -2.543,-0.78 -5.871,-0.193 -8.218,-0.974 0.977,3.127 1.957,6.458 4.11,9.199 -0.977,2.345 2.35,1.561 1.565,3.714 0.393,0 0.393,-0.189 0.588,-0.189 C -2.543,9.593 0,11.158 0.789,9.786 1.96,10.961 2.938,9.005 4.113,8.808 4.702,8.027 5.875,6.853 4.895,5.678 5.68,4.7 4.505,2.745 5.875,2.153 5.09,-0.39 1.96,0.588 0,0 m 2.35,-10.961 c -2.545,-0.394 -5.088,-3.332 -7.633,-1.372 0.785,1.569 -0.195,3.131 -0.784,4.31 -0.389,1.565 -1.37,3.718 0.196,4.893 1.173,0.583 1.373,-1.175 1.763,-1.763 1.37,2.938 5.871,0.39 7.046,3.718 1.372,0.785 2.937,0 1.957,-1.758 C 4.113,-3.911 5.483,-4.893 5.483,-5.875 4.702,-7.83 4.702,-10.18 2.35,-10.961 m 0.982,37.389 c 0.388,0.39 1.173,0.978 1.758,0.588 0.393,-1.368 1.958,-0.785 2.938,-1.171 0.783,0.193 1.374,1.368 2.349,0.973 0.2,-1.17 2.155,-1.565 1.173,-3.13 C 9.005,22.513 6.658,20.747 3.917,20.167 3.332,18.598 1.763,19.769 0.98,18.791 c 1.179,1.956 2.153,4.897 2.352,7.637 m 6.848,-40.129 c 1.763,-0.592 1.568,0.982 1.96,1.956 0.195,0.192 0.586,0 0.78,0 v 0.39 c 2.155,3.718 7.05,3.134 10.181,5.48 2.935,0.785 6.46,1.18 8.027,3.92 l -2.939,0.39 C 25.648,-3.718 22.123,-3.323 19.381,-5.09 16.838,-6.853 13.313,-6.265 10.965,-8.221 9.203,-7.83 8.617,-9.396 7.048,-9.396 6.658,-9.202 6.46,-8.808 6.46,-8.221 c 2.545,1.763 0.785,5.288 3.135,7.247 4.501,1.171 7.828,4.889 12.723,5.086 1.372,1.956 4.307,0.978 4.698,3.521 C 26.431,8.027 26.431,7.247 25.841,7.046 20.361,6.261 15.663,3.328 9.985,2.543 9.005,2.35 7.638,0.785 6.658,2.153 c 0.98,1.762 0.587,3.722 1.173,5.48 0.392,1.175 1.764,1.767 3.134,1.57 1.955,1.367 4.698,0.977 6.85,1.955 2.155,1.372 3.915,2.35 6.264,3.328 1.176,0.591 3.132,0.39 3.724,1.762 -2.548,0.587 -6.267,-0.78 -8.225,-2.74 -0.392,0 -0.197,0.39 -0.197,0.588 h -2.35 C 16.248,12.14 12.532,13.705 11.357,11.75 9.005,12.53 6.46,11.158 4.113,11.75 2.35,12.333 1.177,13.508 1.96,15.661 c 0.587,0.587 0.978,1.174 1.957,1.372 1.763,-0.978 2.543,0.978 4.111,1.565 2.549,0.39 4.892,2.35 6.462,4.7 0.585,1.368 0,2.933 -0.197,4.305 -1.958,2.543 -4.891,0.978 -7.245,2.346 -1.565,-0.978 -3.131,0.197 -4.889,0 -1.962,-1.368 -3.722,0.395 -5.877,-0.781 -2.738,0.781 -4.5,-1.955 -7.435,-1.372 0,-0.583 -1.57,-0.978 -0.982,-1.951 2.352,0 5.874,0 8.222,0.386 0.785,-0.583 1.763,0.587 2.545,0.785 0.39,-0.785 0.588,-1.763 0.39,-2.741 -0.78,-1.762 -0.585,-4.108 -0.78,-6.067 1.177,-2.153 -1.37,-2.153 -1.763,-3.722 -3.327,-1.368 -3.132,-5.283 -5.875,-7.44 -3.915,-2.539 -0.977,-6.651 -1.369,-9.979 0.587,-1.179 1.764,0.386 2.74,-0.785 -0.193,-0.977 -0.585,-2.157 -1.563,-2.547 0.587,-1.372 -0.59,-2.937 0.587,-4.305 1.171,0 1.37,-1.175 1.954,-1.955 -0.783,-0.979 0.394,-2.351 1.176,-2.943 1.763,0.202 3.916,-0.776 5.483,0.785 3.128,-0.583 7.241,-0.385 9.393,-2.74 -3.325,-2.543 -4.695,-6.462 -7.828,-8.61 -1.372,-3.337 -5.285,-5.091 -7.438,-7.839 -1.764,-0.974 -2.547,-4.306 -5.289,-3.525 0,-0.781 0.591,-1.171 0.397,-2.149 0.78,0.391 1.957,-0.784 2.543,0.391 0.78,0.192 1.563,0 2.154,-0.588 0.785,3.131 4.698,0.977 4.893,4.309 2.155,0.198 2.352,2.938 4.303,3.912 1.177,0.591 3.135,-1.171 3.72,0.981 l 6.853,0.979 c 2.155,-0.194 4.696,-0.585 6.265,0.981 -2.74,0.785 -5.676,1.368 -8.613,1.175 -1.37,0.781 -3.134,-0.39 -4.505,0.588 -0.585,1.368 1.568,1.171 1.568,2.349 l 0.977,-0.981 c 0.198,0.981 1.175,0.784 1.572,0.587 0.78,1.96 2.343,3.525 4.498,3.726 1.956,-1.569 3.916,0.583 5.873,-0.201 0.976,-0.583 2.346,0.588 3.915,0.395 0,0.586 0.198,1.372 -0.195,1.955 -1.567,-0.194 -3.523,0.785 -5.482,0.785 -2.348,1.171 -5.284,-0.197 -7.438,1.171 0,2.547 -2.545,2.349 -3.917,3.528 -0.389,0.387 0,0.979 0.197,1.368 0.589,0.194 0.977,0.978 1.762,0.583 l -0.388,-1.758 c 0.193,-0.39 0.388,-0.587 0.778,-0.39"
             style="fill:#b3a57c;fill-opacity:1;fill-rule:nonzero;stroke:none;stroke-width:1.70346"
             id="path22378" />
        </g>
        <g
           id="g22380"
           transform="translate(258.1748,393.4453)"
           style="stroke-width:1.70346">
          <path
             d="m 0,0 c -1.177,0.395 -1.763,-2.157 -3.525,-1.758 -1.173,-0.399 -1.957,-2.552 -3.525,-1.381 -2.346,0.596 -3.327,-1.758 -4.5,-3.319 -0.588,-1.763 1.957,-0.784 0.979,-2.547 0.194,-0.197 0.586,-0.197 0.783,-0.588 -0.589,-0.977 -0.978,-2.349 -0.392,-3.135 -1.37,-1.757 1.957,-3.52 -0.391,-5.089 0.978,-0.583 1.175,-1.956 2.546,-1.369 1.172,2.158 3.915,0.983 5.675,1.96 1.565,0.978 3.525,1.368 5.482,1.763 0.588,-1.175 -0.977,-1.372 -1.367,-1.96 -1.178,-0.394 -2.55,-0.977 -3.135,-2.152 -1.37,0.192 -2.155,-1.372 -3.72,-0.785 l -0.59,-0.978 c -0.585,-0.193 -1.173,0.784 -1.955,0 -1.372,-0.588 0.585,-1.569 -0.588,-2.157 1.763,-0.978 -1.565,-3.323 0.588,-4.498 0.394,-0.391 0,-0.983 0.394,-1.372 h 1.173 c 0.586,-0.978 1.758,-1.96 1.958,-3.324 0.782,-0.197 1.174,-0.785 1.76,-1.175 3.72,0.193 7.045,2.345 10.373,3.911 0.392,0 1.37,0.394 1.37,-0.39 0,-0.781 -0.782,-1.176 -1.37,-1.57 -1.563,-0.39 -2.74,-1.951 -4.11,-2.739 -0.393,-1.369 -0.98,-1.369 -1.956,-2.154 -1.172,0.395 -1.764,-0.583 -2.742,-0.583 -0.78,-1.368 -2.35,-2.354 -3.913,-2.354 l -0.784,0.785 c -1.568,-0.978 -1.371,-3.323 -3.525,-2.543 -0.586,-1.759 -2.933,-0.193 -3.716,-1.759 -1.177,-0.393 -2.352,0 -2.938,0.777 -2.154,0.789 -5.677,-0.973 -5.872,1.963 1.957,0 2.349,2.149 4.307,1.953 1.763,0.981 4.108,1.372 5.088,2.941 l -0.585,1.762 c 1.565,0.193 1.76,2.345 2.152,3.718 0.978,1.963 -0.392,4.113 -0.587,6.261 0.195,0 0.392,0 0.587,0.39 -0.392,0.588 -0.979,0.588 -1.369,0 0.192,0.982 -0.783,1.569 -1.373,2.157 -1.173,-0.785 -2.15,-0.588 -3.328,-0.588 0,-0.78 1.178,0.193 0.785,-0.981 -1.567,-0.391 -2.155,1.174 -3.525,-0.194 -0.785,0.194 -1.957,0.194 -2.348,1.175 0.196,1.566 1.956,0.979 2.545,2.153 1.566,-0.39 3.523,0.587 5.284,0.978 0.394,0.592 0.98,1.569 1.762,1.96 -1.762,2.35 -0.585,5.48 -1.567,8.221 0.392,1.178 0.392,2.547 -0.586,3.327 -1.565,-1.759 -3.132,0.977 -4.502,-0.978 -1.567,0 -2.74,0.785 -3.328,1.955 3.525,2.938 8.615,0.978 12.528,2.938 3.328,0 6.265,2.157 9.593,1.372"
             style="fill:#b3a57c;fill-opacity:1;fill-rule:nonzero;stroke:none;stroke-width:1.70346"
             id="path22382" />
        </g>
        <g
           id="g22384"
           transform="translate(366.9277,528.2851)"
           style="stroke-width:1.70346">
          <path
             d="M 0,0 0.808,-0.487 C -0.61,-0.974 -2.432,1.46 -3.846,0 c -2.02,1.704 -3.235,-2.187 -5.056,0 -1.213,-1.947 -2.832,0.239 -4.453,-1.217 -2.02,1.703 -1.817,-3.16 -3.841,-1.456 -2.83,1.213 -4.449,-1.947 -7.079,-1.217 -0.408,1.217 -0.408,2.43 -0.202,3.89 0,0.73 -1.013,1.212 -0.807,1.947 l 0.194,-0.243 c 0.613,0 1.016,0.243 1.222,1.212 0,-0.73 0.604,-0.487 1.007,-0.487 0.405,2.921 3.441,1.217 4.249,3.895 0.404,0.73 0,1.456 -0.607,1.703 -0.608,0.726 0.201,1.456 0.407,2.186 0,2.435 1.815,0.974 2.627,0.244 1.821,3.403 4.451,-0.244 6.879,0 0.607,1.46 2.428,1.704 3.033,2.677 -1.416,1.943 1.618,3.16 1.416,5.107 l 0.202,-0.243 c 1.012,0.729 1.816,1.213 2.429,2.673 0.403,1.947 -0.206,3.894 -1.013,5.593 -0.404,3.895 2.629,5.594 1.013,9.245 1.412,1.456 -1.013,1.947 0.2,3.16 -2.225,0.973 -0.813,4.62 -3.031,4.863 -0.809,-0.726 -2.839,0.974 -2.839,-1.699 -2.02,0.973 -3.633,1.456 -6.063,1.456 -0.81,-2.187 -2.633,-0.726 -4.045,-1.456 0,-0.244 0,-0.731 0.199,-0.974 -0.608,-0.243 -2.022,1.217 -2.221,-0.487 -1.619,-0.73 -3.238,-0.73 -4.858,-0.973 -1.416,0.243 0,1.703 -0.206,2.434 h -0.4 c -1.215,0.73 -3.24,0 -4.043,-1.217 -1.014,0 -2.634,-1.704 -3.446,0 l 0.812,1.217 c -1.011,0.73 -2.022,0.243 -2.626,1.212 -0.403,-0.482 0,-1.943 -0.403,-2.429 -0.206,0 -0.409,-0.244 -0.616,0 0.616,1.699 -0.603,1.46 -1.411,1.699 -0.2,0.73 1.212,0.974 1.013,1.947 -1.821,0.978 -2.635,-0.973 -2.834,-2.673 0.81,0.244 1.215,-0.243 1.821,-0.487 0.405,-1.703 -2.018,-2.433 -1.622,-4.376 -1.41,0.73 -1.211,-1.704 -2.833,-0.487 -0.601,-0.73 -0.4,-2.186 -0.192,-3.164 l 1.409,0.73 c 0.608,-0.243 0.405,-0.973 0.405,-1.699 1.822,-0.974 1.416,-3.651 2.633,-5.355 2.021,-0.487 2.021,3.651 4.444,2.921 0.207,0.974 -1.006,0.243 -1.006,1.217 1.818,-1.461 1.619,2.916 3.639,1.46 1.008,0.726 1.211,1.943 1.414,2.912 3.038,0 5.865,-1.699 8.7,0.248 3.235,0.482 7.079,0.73 9.914,1.703 0.807,-0.73 1.819,-1.221 2.422,-0.486 2.839,-0.974 1.623,-4.62 2.632,-6.811 -0.202,-1.947 -0.401,-3.89 -0.401,-5.594 0.401,-0.486 0.808,-0.973 0.608,-1.703 0.402,-0.73 -0.409,-1.217 -0.809,-1.217 -0.407,-0.73 0,-1.217 0.4,-1.943 -1.615,0.243 -2.43,-2.19 -3.84,-1.947 -0.809,0.73 -2.223,-0.726 -2.428,0.73 -4.046,-2.19 -8.7,-1.947 -12.949,-0.243 -0.201,-0.73 1.01,-0.487 1.01,-1.461 -1.211,0 -2.221,-0.969 -3.233,-0.486 V 13.86 c -1.417,-0.726 0.4,-2.186 -0.404,-3.16 -1.214,-0.243 -2.429,-1.703 -3.44,-3.403 -0.204,-0.973 0.608,-3.164 -0.606,-3.651 0.203,0 1.01,-0.486 0.606,-1.217 0.81,-1.217 1.011,-3.646 0.608,-5.35 -0.405,-2.186 -2.429,-0.726 -2.63,-2.673 -1.008,-0.73 -0.607,-2.921 -1.008,-4.133 0.801,-0.248 1.414,-1.461 2.424,-0.974 1.214,2.917 4.046,0.974 5.259,3.403 l 0.607,-1.217 c 0.807,1.948 3.233,0.487 4.247,2.434 2.631,-2.434 3.239,3.16 6.071,0.487 0.202,0.974 -0.608,0.487 -0.811,1.217 1.214,0.974 2.83,-0.243 4.454,0.487 1.819,-1.947 2.83,0.726 4.448,1.943 1.215,0.973 2.024,-1.7 2.83,0.247 2.025,-0.973 3.849,1.213 6.273,0.483 v 0.973 z"
             style="fill:#b3a57c;fill-opacity:1;fill-rule:nonzero;stroke:none;stroke-width:1.70346"
             id="path22386" />
        </g>
        <g
           id="g22388"
           transform="translate(353.6377,527.6386)"
           style="stroke-width:1.70346">
          <path
             d="M 0,0 C -0.143,0 -0.264,-0.025 -0.39,-0.042 -0.253,-0.063 -0.128,-0.038 0,0"
             style="fill:#b3a57c;fill-opacity:1;fill-rule:nonzero;stroke:none;stroke-width:1.70346"
             id="path22390" />
        </g>
        <g
           id="g22392"
           transform="translate(352.9688,527.5546)"
           style="stroke-width:1.70346">
          <path
             d="M 0,0 C 0.08,0.034 0.185,0.029 0.279,0.042 0.128,0.063 -0.029,0.126 -0.205,0.244 Z"
             style="fill:#b3a57c;fill-opacity:1;fill-rule:nonzero;stroke:none;stroke-width:1.70346"
             id="path22394" />
        </g>
        <g
           id="g22396"
           transform="translate(353.6377,527.6386)"
           style="stroke-width:1.70346">
          <path
             d="m 0,0 c 0.521,0 1.081,-0.021 1.352,0.646 0.606,0 1.015,0 1.62,-0.486 0.608,2.433 2.423,-0.244 3.637,0.973 L 2.768,1.376 C 1.521,1.75 0.878,0.269 0,0"
             style="fill:#b3a57c;fill-opacity:1;fill-rule:nonzero;stroke:none;stroke-width:1.70346"
             id="path22398" />
        </g>
        <g
           id="g22400"
           transform="translate(343.2549,525.121)"
           style="stroke-width:1.70346">
          <path
             d="m 0,0 c 2.832,1.464 6.277,1.464 8.904,3.164 -3.235,0 -6.072,-3.403 -9.099,-1.46 0.195,0.487 0,1.217 0.398,1.699 C -1.01,2.677 -0.195,0.73 0,0"
             style="fill:#b3a57c;fill-opacity:1;fill-rule:nonzero;stroke:none;stroke-width:1.70346"
             id="path22402" />
        </g>
        <g
           id="g22404"
           transform="translate(380.0996,506.8837)"
           style="stroke-width:1.70346">
          <path
             d="m 0,0 c -1.007,-1.947 -3.031,-1.947 -4.653,-2.677 l -0.603,0.973 c -2.225,-0.482 -4.049,-3.159 -6.268,-3.159 -0.406,-0.974 -0.609,-1.947 -0.206,-2.921 1.419,-1.704 1.009,-4.377 2.024,-6.319 1.417,-2.191 -1.215,-4.868 1.417,-6.329 0.4,-1.699 1.009,-3.403 1.412,-5.106 2.427,1.464 5.461,1.464 7.286,4.376 0.406,-1.46 -1.217,-2.912 -2.23,-3.89 -1.007,0.491 -2.018,-0.969 -2.224,-1.943 0,-1.703 1.014,-2.677 1.014,-4.137 -1.014,-0.239 -1.622,-1.461 -1.622,-2.673 1.017,-1.217 2.23,-1.461 3.038,-3.164 -0.808,-0.978 0.199,-2.673 -1.014,-3.16 1.419,-0.734 0.609,-2.434 0.609,-3.646 -0.808,-1.465 -1.819,-2.678 -1.616,-4.625 l 0.605,-0.726 c -1.82,-2.92 -2.833,-6.571 -4.249,-9.731 -0.609,-1.7 -1.416,-3.16 -2.224,-4.377 -1.217,-2.916 -3.842,-3.894 -5.059,-6.567 -1.013,0.243 -1.414,-1.704 -2.429,-0.973 1.215,4.376 5.262,7.058 6.071,11.917 1.616,3.16 3.032,7.054 4.653,10.457 -0.813,2.191 1.417,4.625 -0.609,6.081 -1.412,4.133 -0.604,9.244 -2.428,13.134 -0.803,-0.244 -0.803,-0.73 -1.416,-1.217 0.203,-0.487 0.41,-0.487 0.41,-0.969 -1.619,-0.491 -2.026,-2.434 -2.433,-3.895 -3.435,-4.376 -6.875,-8.509 -10.112,-12.891 -2.024,1.218 -2.426,-3.646 -4.246,-1.943 0,1.457 0.603,2.917 1.614,3.891 2.023,-0.487 2.023,2.672 3.038,4.133 2.223,0.487 2.223,5.35 4.652,3.89 0.405,0.239 0.609,0.491 1.007,0.973 -0.201,0.487 -0.808,0.487 -1.213,0.487 0,0.244 0,0.244 -0.199,0.244 1.821,0.243 1.617,2.92 2.835,3.65 0,1.943 0.402,4.377 1.414,5.837 -0.407,1.457 1.617,1.457 0.808,3.16 1.622,0.731 1.622,2.921 2.225,4.62 -0.404,0 -0.603,0.487 -0.809,0.731 0.206,0.73 0.604,1.946 -0.2,2.673 -0.814,-1.7 -3.239,0.49 -3.438,-2.187 -2.835,-0.486 -5.466,-3.89 -7.89,-3.164 -2.024,-0.726 -3.646,-1.942 -5.262,-3.647 -0.403,-0.243 0,-0.729 0,-0.973 -0.403,-1.943 -0.206,-3.403 -1.62,-4.62 -1.615,0.487 -1.416,-1.7 -2.628,-2.43 -0.808,0.239 -0.808,1.7 -1.007,2.673 1.416,2.673 1.007,6.324 1.613,8.758 -0.606,0.239 -1.613,1.217 -2.426,0.487 -0.406,1.456 1.211,0.73 1.82,1.456 1.212,1.704 0.812,4.376 3.036,4.868 1.416,-0.244 1.416,-2.434 2.63,-3.164 3.435,2.672 7.887,0.973 11.125,3.651 1.215,-0.244 2.427,0.239 3.233,0.729 -0.201,1.457 -2.222,2.673 -0.806,3.886 -0.203,0.73 0.204,2.434 -1.013,2.678 -1.214,-0.73 -1.819,1.947 -2.83,-0.244 -1.013,0 -1.616,0.487 -2.43,-0.243 -0.199,-0.487 0,-1.217 -0.404,-1.461 -1.418,1.218 -3.031,-0.486 -4.248,0 -0.807,0 -1.615,-0.486 -2.627,-0.243 0.198,1.704 -0.606,2.92 -1.418,3.894 l 1.418,0.974 c 5.666,0.243 10.923,2.186 16.381,2.429 C -7.889,-0.243 -4.45,0 -1.615,0.969 -0.808,1.217 -0.4,0.726 0,0"
             style="fill:#b3a57c;fill-opacity:1;fill-rule:nonzero;stroke:none;stroke-width:1.70346"
             id="path22406" />
        </g>
        <g
           id="g22408"
           transform="translate(374.5508,432.3574)"
           style="stroke-width:1.70346">
          <path
             d="m 0,0 c -0.399,-1.217 1.013,-0.969 1.42,-1.947 0.201,-0.969 1.01,-1.943 1.01,-3.16 -1.616,0.244 -1.818,-2.673 -3.842,-1.704 -0.407,-0.482 -1.018,-1.216 -1.62,-0.73 -0.199,0.248 0,0.487 -0.199,0.73 0.405,0.488 1.211,0.244 1.01,1.218 -0.406,0.973 -0.811,-0.487 -1.217,-0.239 0.406,-1.222 -1.415,-0.735 -0.807,-1.948 -0.608,-1.221 -2.428,-1.221 -3.235,-2.438 h -0.609 c 0,0.248 0,0.491 -0.203,0.491 -0.405,-0.73 -2.022,-0.73 -1.412,-2.19 0.199,0.486 0.402,1.46 1.213,0.73 -1.823,-1.704 0.402,-4.868 0.402,-7.541 2.225,-1.46 4.858,0.244 7.486,-0.726 2.627,0.239 2.426,3.399 4.248,5.103 v 1.221 c 0.406,-0.734 0.608,-1.465 0.406,-1.947 -0.607,-0.247 -0.812,-0.486 -1.013,-0.978 0,-0.482 0.607,-0.243 1.013,-0.243 0.602,0.735 0.81,1.464 1.819,1.221 l 0.199,-0.486 H 5.468 c -0.406,-0.974 0.809,-1.948 1.009,-2.921 0.206,0 0.405,0.243 0.608,-0.244 -1.819,0.731 -0.203,-2.917 -2.224,-2.19 0.201,0.243 1.416,0.73 1.009,1.703 -1.617,2.435 -2.426,-0.973 -4.047,0.487 -1.618,0.244 -2.426,-2.677 -4.044,-0.726 -0.209,0 -0.605,0.239 -0.605,0 1.414,0.482 2.427,-2.434 3.64,-0.247 0.807,-1.46 1.821,0 2.63,0.247 0.402,1.213 1.01,0.482 1.618,0.482 0.406,-0.243 0.204,-0.729 0.204,-1.216 -1.822,-0.973 -4.253,-1.217 -5.665,-3.156 -1.822,0.965 -4.25,2.669 -6.075,1.456 -0.199,-1.456 -0.608,-4.624 1.018,-5.594 0,-0.49 0,-0.973 0.403,-1.22 1.822,0 4.045,1.951 5.462,0 1.212,0 1.414,1.708 2.629,0.977 0,-1.947 -2.025,-1.216 -2.426,-2.19 -1.819,-0.486 -3.239,1.46 -4.656,-0.486 0.407,1.22 -0.809,0.972 -1.212,1.22 -0.808,0.24 -0.808,-0.734 -1.014,-1.464 l 0.406,-0.491 c -0.406,-0.239 -1.412,0.247 -1.616,-0.722 0.398,-2.438 0.398,-3.168 -0.405,-5.116 0,-2.676 2.021,-3.65 3.032,-5.832 4.454,-2.195 7.689,2.182 11.735,2.916 0.404,1.46 1.213,0.24 2.02,0.483 -0.199,1.947 2.231,1.465 3.439,1.947 -0.806,-1.456 -1.414,-3.164 -3.232,-3.65 -1.014,-1.696 -2.832,-0.974 -3.641,-2.917 -1.823,0.243 -2.833,-2.677 -4.654,-0.974 -1.213,-0.969 -2.633,-1.703 -2.834,-3.164 -1.82,-1.208 -3.436,-2.186 -5.666,-1.947 -0.199,-0.239 -0.199,-0.722 -0.199,-1.208 0.405,-0.731 1.007,0.239 1.411,0.486 0.41,-0.247 0.41,-0.978 0.41,-1.464 -2.228,-1.704 -3.64,3.407 -5.465,0.978 -1.616,-1.708 -3.637,-2.925 -5.867,-3.408 -1.21,0.24 -2.831,-1.212 -3.842,0.483 -1.208,-0.726 -1.817,-0.974 -2.832,0.243 -1.412,0.491 -3.034,-0.243 -4.244,0.731 0.199,1.708 2.832,-0.488 2.02,2.19 0.406,1.217 1.011,-0.239 1.619,0 1.012,1.217 3.437,-0.482 3.238,2.19 0.199,0.24 0.608,0 0.808,0 0.205,0 0.205,-0.482 0.402,-0.482 0.813,0 1.415,0.722 1.822,1.452 l 4.247,0.73 c 1.013,2.19 2.629,3.407 2.024,6.081 1.418,0.972 1.011,3.168 2.025,4.628 0.604,-0.73 1.412,0.243 2.224,0.243 0.199,0.482 0.199,0.973 0.199,1.213 -0.606,-0.969 -1.819,-1.213 -2.423,0.244 h -0.403 c -0.405,1.46 0.403,2.433 1.007,3.407 -1.618,0 -1.211,1.46 -2.024,2.434 0,1.459 2.227,-0.24 1.619,1.704 -0.806,0.972 -2.627,0.243 -2.83,1.703 -1.014,-0.243 -2.833,1.699 -3.238,-0.491 -1.618,-0.24 -4.446,0 -5.864,-0.24 -1.213,0.488 -1.821,2.187 -3.242,1.213 0.409,2.191 -1.816,3.164 -0.804,5.108 -0.807,0.972 0.804,3.164 -0.807,3.646 l 0.807,2.434 c 0.201,-1.213 1.617,-1.46 2.225,-0.731 0.608,0.488 1.007,0.974 1.007,1.704 0.405,0.244 -0.199,-0.973 0.405,-0.973 l 1.013,0.486 c 0,-0.486 -0.604,-0.973 0,-1.217 0.208,-2.676 -0.808,-5.349 -1.817,-7.536 2.828,-0.487 5.659,1.699 8.697,1.943 1.009,-0.487 3.034,-0.487 2.425,1.704 -1.212,1.947 1.217,4.377 -0.807,5.837 -1.821,1.216 -5.464,-0.731 -5.866,2.92 -0.808,0.726 -1.818,0 -2.424,1.217 -0.208,0.73 0.201,1.456 0.803,1.699 0.613,-0.243 1.415,0.244 1.822,-0.482 1.617,1.7 3.64,-0.487 5.464,0.482 1.818,1.704 4.045,-0.969 5.665,1.218 2.423,-1.461 3.838,2.429 6.069,2.429 0.808,0.735 0.199,2.195 0.403,3.164 z"
             style="fill:#b3a57c;fill-opacity:1;fill-rule:nonzero;stroke:none;stroke-width:1.70346"
             id="path22410" />
        </g>
        <g
           id="g22412"
           transform="translate(342.3311,450.2001)"
           style="stroke-width:1.70346">
          <path
             d="m 0,0 c -4.525,5.393 -9.425,10.948 -14.632,16.605 4.907,5.358 9.827,10.936 14.546,16.55 C 37.84,29.63 59.808,22.278 59.808,16.571 59.808,10.873 37.872,3.525 0,0 m 29.063,-56.889 c 0,-1.162 -0.23,-1.993 -0.696,-2.451 -0.46,-0.461 -1.288,-0.696 -2.453,-0.696 -9.672,0 -36.283,16.432 -69.719,47.191 2.071,1.931 4.091,3.849 6.068,5.749 11.326,0.214 23.539,0.802 35.45,1.83 20.526,-24.758 31.35,-43.772 31.35,-51.623 m -152.516,-2.455 c -0.463,0.462 -0.698,1.288 -0.698,2.455 0,7.851 10.822,26.865 31.348,51.623 11.909,-1.024 24.112,-1.616 35.438,-1.83 2.033,-1.964 4.049,-3.885 6.068,-5.778 -38.665,-35.597 -67.336,-51.291 -72.156,-46.47 m -31.446,75.915 c 0,5.707 21.973,13.059 59.895,16.584 4.725,-5.614 9.643,-11.192 14.551,-16.546 C -85.663,10.948 -90.556,5.393 -95.088,0 c -37.873,3.525 -59.811,10.873 -59.811,16.571 m 31.446,75.912 c 4.822,4.825 33.501,-10.869 72.178,-46.487 -2.068,-1.927 -4.097,-3.852 -6.071,-5.753 -11.339,-0.218 -23.556,-0.806 -35.48,-1.83 -24.321,29.299 -34.661,50.037 -30.627,54.07 m 92.711,-59.105 c -0.543,0.545 -1.089,1.086 -1.639,1.632 9.329,-0.239 18.06,-0.701 26.133,-1.33 -3.67,-4.297 -7.61,-8.75 -11.851,-13.353 -4.048,4.318 -8.268,8.674 -12.643,13.051 m -19.116,6.953 c 0.776,0.738 1.55,1.477 2.31,2.198 0.772,-0.721 1.547,-1.46 2.32,-2.198 -0.776,0.008 -1.548,0.008 -2.32,0.008 -0.76,0 -1.534,0 -2.31,-0.008 m -27.133,-20 c -4.234,4.599 -8.179,9.052 -11.85,13.349 8.077,0.629 16.808,1.091 26.134,1.33 -0.55,-0.546 -1.1,-1.087 -1.641,-1.632 -4.377,-4.377 -8.591,-8.733 -12.643,-13.047 m 14.292,-22.194 c -9.324,0.239 -18.054,0.696 -26.126,1.326 3.68,4.309 7.637,8.774 11.863,13.37 4.293,-4.596 8.544,-8.993 12.614,-13.06 0.55,-0.553 1.102,-1.095 1.649,-1.636 m 17.471,-5.325 c -0.773,-0.73 -1.546,-1.473 -2.307,-2.187 -0.773,0.727 -1.547,1.448 -2.323,2.187 0.776,0 1.55,-0.008 2.31,-0.008 0.772,0 1.544,0.008 2.32,0.008 m 27.102,20.021 c 4.226,-4.596 8.187,-9.061 11.863,-13.37 -8.071,-0.63 -16.798,-1.087 -26.118,-1.326 0.55,0.541 1.096,1.091 1.639,1.633 4.075,4.07 8.326,8.467 12.616,13.063 M -34.365,3.395 c -1.845,-1.846 -3.668,-3.638 -5.481,-5.409 -2.532,-0.029 -5.088,-0.054 -7.702,-0.054 -2.604,0 -5.16,0.025 -7.69,0.054 -1.815,1.771 -3.64,3.563 -5.486,5.409 -4.49,4.494 -8.745,8.888 -12.768,13.172 4.031,4.301 8.28,8.699 12.768,13.185 1.846,1.851 3.671,3.638 5.486,5.405 2.527,0.033 5.084,0.058 7.69,0.058 2.614,0 5.172,-0.025 7.702,-0.058 1.813,-1.767 3.636,-3.554 5.481,-5.405 4.483,-4.486 8.734,-8.884 12.769,-13.185 -4.018,-4.284 -8.273,-8.682 -12.769,-13.172 m 62.732,89.088 c 4.037,-4.033 -6.303,-24.771 -30.629,-54.07 -11.924,1.024 -24.138,1.612 -35.475,1.83 -1.983,1.901 -4.003,3.826 -6.077,5.753 38.68,35.618 67.358,51.312 72.181,46.487 M 64.938,16.571 c 0,11.381 -28.657,18.032 -61.129,21.276 20.67,25.253 36.228,50.217 28.188,58.261 -10.349,10.335 -48.605,-18.292 -79.545,-46.654 -30.933,28.362 -69.193,56.989 -79.528,46.654 -8.044,-8.044 7.514,-33.008 28.178,-58.261 -32.473,-3.244 -61.123,-9.895 -61.123,-21.276 0,-11.372 28.602,-18.014 61.041,-21.262 -18.761,-22.996 -30.299,-42.391 -30.297,-52.198 0,-2.572 0.738,-4.625 2.201,-6.081 10.333,-10.327 48.57,18.28 79.501,46.634 31.919,-29.408 60.772,-48.824 73.489,-48.824 2.575,0 4.618,0.73 6.083,2.199 1.454,1.456 2.191,3.5 2.191,6.072 0,9.807 -11.534,29.202 -30.29,52.198 32.434,3.248 61.04,9.89 61.04,21.262"
             style="fill:#ffffff;fill-opacity:1;fill-rule:nonzero;stroke:none;stroke-width:1.70346"
             id="path22414" />
        </g>
        <g
           id="g22416"
           transform="translate(148.9116,372.3925)"
           style="stroke-width:1.70346">
          <path
             d="m 0,0 c -0.892,1.482 -0.097,2.568 2.497,5.833 l 12.725,16.08 -0.482,0.886 -21.083,-2.446 c -2.876,-0.353 -4.19,-0.495 -5.371,1.065 l -0.786,-0.428 3.495,-6.395 0.787,0.432 c -0.525,1.104 -1.255,2.669 -0.057,3.324 0.502,0.277 2.067,0.474 4.818,0.835 L 0.422,12.098 C -0.346,11.108 -2.125,8.825 -2.977,8.355 -4.018,7.793 -4.358,8.343 -5.583,10.206 L -6.37,9.777 -0.787,-0.428 Z m -1.97,19.383 9.272,1.225 -5.911,-7.365 z"
             style="fill:#d7ceb5;fill-opacity:1;fill-rule:nonzero;stroke:none;stroke-width:1.70346"
             id="path22418" />
        </g>
        <g
           id="g22420"
           transform="translate(168.561,352.6328)"
           style="stroke-width:1.70346">
          <path
             d="m 0,0 c -3.961,0.234 -7.467,1.044 -10.294,4.666 -5.151,6.588 -3.294,13.784 1.996,17.909 5.74,4.486 13.338,3.865 17.974,-2.077 1.991,-2.547 2.308,-5.808 2.879,-6.542 0.596,-0.768 1.391,-0.561 2.319,-0.285 L 15.469,12.907 8.852,7.737 8.298,8.446 c 1.689,2.908 3.141,7.868 0.621,11.096 -3.221,4.129 -8.412,1.85 -13.195,-1.885 -1.696,-1.321 -4.278,-3.617 -5.273,-6.076 -1.108,-2.777 0.216,-5.346 0.896,-6.219 1.725,-2.207 4.234,-3.667 8.697,-3.953 z"
             style="fill:#d7ceb5;fill-opacity:1;fill-rule:nonzero;stroke:none;stroke-width:1.70346"
             id="path22422" />
        </g>
        <g
           id="g22424"
           transform="translate(185.8516,331.2568)"
           style="stroke-width:1.70346">
          <path
             d="M 0,0 C -1.311,1.12 -0.906,2.4 0.514,6.319 L 7.453,25.613 6.714,26.302 -12.49,17.264 c -2.616,-1.247 -3.815,-1.801 -5.432,-0.698 l -0.607,-0.658 5.348,-4.948 0.607,0.663 c -0.843,0.882 -2.037,2.128 -1.11,3.131 0.388,0.42 1.81,1.112 4.303,2.329 l 5.927,-5.489 C -3.863,10.415 -4.824,7.684 -5.478,6.974 -6.286,6.102 -6.783,6.517 -8.54,7.893 l -0.608,-0.655 8.54,-7.897 z m -8.038,17.746 8.399,4.112 -3.26,-8.867 z"
             style="fill:#d7ceb5;fill-opacity:1;fill-rule:nonzero;stroke:none;stroke-width:1.70346"
             id="path22426" />
        </g>
        <g
           id="g22428"
           transform="translate(188.0757,328.3027)"
           style="stroke-width:1.70346">
          <path
             d="m 0,0 9.452,-6.27 c 7.696,-4.758 14.024,-2.237 17.675,3.273 3.057,4.603 3.787,11.611 -4.591,17.172 l -9.122,6.047 -0.498,-0.747 c 1.087,-0.89 2.365,-1.829 1.152,-3.652 L 4.289,1.074 C 3.554,-0.025 2.383,-0.504 0.495,0.751 Z m 19.135,12.94 c 0.405,0.676 0.873,1.445 2.786,0.173 C 27.064,9.701 23.531,2.878 21.724,0.155 16.98,-7 13.078,-7.168 9.729,-4.943 8.292,-3.987 8.38,-3.273 9.171,-2.077 Z"
             style="fill:#d7ceb5;fill-opacity:1;fill-rule:nonzero;stroke:none;stroke-width:1.70346"
             id="path22430" />
        </g>
        <g
           id="g22432"
           transform="translate(221.5703,335.2304)"
           style="stroke-width:1.70346">
          <path
             d="m 0,0 18.812,-8.657 -3.015,-6.559 -0.814,0.378 c 1.378,4.977 -0.558,6.853 -4.962,8.879 -1.792,0.827 -2.438,0.966 -3.086,-0.437 l -3.481,-7.561 c 3.115,-1.478 5.168,-1.394 7.517,2.426 l 0.846,-0.391 -5.071,-11.023 -0.846,0.389 c 1.483,4.26 0.273,6.006 -2.954,7.487 l -3.634,-7.889 c -0.663,-1.435 -0.22,-2.11 1.896,-3.089 3.2,-1.473 6.912,-2.152 11.236,1.826 l 0.911,-0.42 -4.425,-6.18 -19.075,8.778 0.374,0.813 c 1.947,-0.658 3.004,-1.027 3.934,0.996 l 7.264,15.782 c 0.992,2.152 -0.348,2.849 -1.804,3.638 z"
             style="fill:#d7ceb5;fill-opacity:1;fill-rule:nonzero;stroke:none;stroke-width:1.70346"
             id="path22434" />
        </g>
        <g
           id="g22436"
           transform="translate(271.6597,293.3134)"
           style="stroke-width:1.70346">
          <path
             d="m 0,0 -11.628,2.619 0.199,0.877 c 2.149,-0.264 3.187,-0.387 3.708,1.922 l 3.971,17.649 -0.069,0.017 -13.516,-19.182 -0.946,0.215 -4.111,22.593 -0.071,0.013 -3.665,-16.282 C -26.68,7.994 -26.24,7.012 -23.372,6.186 l -0.199,-0.877 -8.191,1.846 0.197,0.869 c 2.787,-0.37 3.359,0.054 3.817,2.089 l 3.745,16.63 c 0.411,1.822 -0.109,2.455 -2.558,3.19 l 0.2,0.877 8.858,-1.998 3.282,-18.103 L -3.496,25.656 5.329,23.667 5.13,22.799 C 3.141,23.097 2.003,23.281 1.322,20.269 L -2.161,4.792 c -0.63,-2.803 0.115,-3.08 2.356,-3.915 z"
             style="fill:#d7ceb5;fill-opacity:1;fill-rule:nonzero;stroke:none;stroke-width:1.70346"
             id="path22438" />
        </g>
        <g
           id="g22440"
           transform="translate(292.4312,292.5625)"
           style="stroke-width:1.70346">
          <path
             d="m 0,0 -12.553,0.546 0.037,0.893 c 1.948,0.092 3.353,0.181 3.448,2.401 l 0.749,17.355 c 0.103,2.371 -1.58,2.514 -3.223,2.691 l 0.038,0.897 12.549,-0.546 -0.034,-0.888 c -1.691,0 -3.418,0.037 -3.52,-2.401 L -3.261,3.592 C -3.355,1.297 -1.928,1.12 0.042,0.898 Z"
             style="fill:#d7ceb5;fill-opacity:1;fill-rule:nonzero;stroke:none;stroke-width:1.70346"
             id="path22442" />
        </g>
        <g
           id="g22444"
           transform="translate(320.0088,295.2275)"
           style="stroke-width:1.70346">
          <path
             d="m 0,0 c -1.71,-0.219 -2.388,0.943 -4.33,4.633 l -9.602,18.119 -0.998,-0.088 -6.246,-20.285 c -0.842,-2.774 -1.236,-4.032 -3.141,-4.482 l 0.077,-0.898 7.258,0.63 -0.079,0.893 c -1.22,-0.033 -2.947,-0.075 -3.062,1.281 -0.048,0.574 0.396,2.093 1.173,4.754 l 8.044,0.692 c 0.602,-1.095 1.976,-3.647 2.06,-4.611 0.101,-1.18 -0.539,-1.272 -2.742,-1.641 l 0.08,-0.898 11.579,1.003 z m -18.535,6 2.612,8.977 4.36,-8.376 z"
             style="fill:#d7ceb5;fill-opacity:1;fill-rule:nonzero;stroke:none;stroke-width:1.70346"
             id="path22446" />
        </g>
        <g
           id="g22448"
           transform="translate(347.7637,319.3017)"
           style="stroke-width:1.70346">
          <path
             d="m 0,0 c -1.385,2.186 -4.704,5.455 -8.735,4.149 -1.777,-0.57 -3.328,-2.203 -2.606,-4.422 0.592,-1.846 1.487,-2.383 4.818,-2.896 l 5.831,-0.868 C 0.65,-4.243 3.886,-5.385 5.09,-9.11 c 0.969,-3.005 0.122,-7.843 -6.164,-9.874 -3.244,-1.045 -5.154,-0.382 -6.215,-0.722 -0.712,-0.235 -0.687,-0.906 -0.651,-1.498 l -0.986,-0.316 -2.727,8.436 0.99,0.314 c 1.796,-3.222 5.029,-6.445 9.362,-5.04 4.1,1.327 3.179,4.759 3.031,5.204 -0.738,2.287 -2.607,2.589 -5.171,2.929 l -2.642,0.353 c -6.741,0.91 -7.688,3.851 -8.203,5.426 -0.672,2.081 -1.112,7.07 5.377,9.168 2.734,0.877 4.698,0.273 5.69,0.587 0.789,0.256 0.795,0.823 0.753,1.528 L -1.44,7.717 0.956,0.306 Z"
             style="fill:#d7ceb5;fill-opacity:1;fill-rule:nonzero;stroke:none;stroke-width:1.70346"
             id="path22450" />
        </g>
        <g
           id="g22452"
           transform="translate(373.8291,312.2812)"
           style="stroke-width:1.70346">
          <path
             d="m 0,0 -11.337,-5.422 -0.388,0.814 c 1.676,0.999 2.872,1.729 1.915,3.739 l -7.486,15.673 c -1.025,2.14 -2.578,1.477 -4.114,0.86 l -0.388,0.811 11.338,5.413 0.389,-0.806 c -1.496,-0.793 -3.033,-1.569 -1.984,-3.772 L -4.568,1.636 c 0.992,-2.069 2.333,-1.553 4.181,-0.83 z"
             style="fill:#d7ceb5;fill-opacity:1;fill-rule:nonzero;stroke:none;stroke-width:1.70346"
             id="path22454" />
        </g>
        <g
           id="g22456"
           transform="translate(380.1104,316.3935)"
           style="stroke-width:1.70346">
          <path
             d="m 0,0 c 1.637,1.414 2.323,2.19 0.988,4.149 l -9.592,14.05 c -3.055,0.91 -3.588,0.676 -3.978,0.415 l -0.504,0.735 6.257,4.276 18.923,-5.64 0.06,0.037 -6.131,8.99 C 4.812,28.786 3.785,29.524 1.268,28.065 L 0.76,28.803 7.13,33.154 7.64,32.416 C 5.682,30.691 5.974,29.886 6.94,28.463 L 18.864,11.002 18.036,10.436 -6.124,17.498 -6.189,17.456 1.909,5.602 C 3.365,3.47 4.373,3.327 6.727,4.591 L 7.234,3.848 0.506,-0.747 Z"
             style="fill:#d7ceb5;fill-opacity:1;fill-rule:nonzero;stroke:none;stroke-width:1.70346"
             id="path22458" />
        </g>
        <g
           id="g22460"
           transform="translate(415.8271,343.2373)"
           style="stroke-width:1.70346">
          <path
             d="m 0,0 -9.188,-8.569 -0.61,0.655 c 1.294,1.451 2.22,2.517 0.7,4.142 L -20.95,8.925 c -1.615,1.737 -2.9,0.638 -4.182,-0.411 l -0.612,0.654 9.187,8.573 0.609,-0.658 c -1.183,-1.2 -2.417,-2.405 -0.753,-4.188 L -4.845,0.192 c 1.57,-1.678 2.691,-0.78 4.231,0.462 z"
             style="fill:#d7ceb5;fill-opacity:1;fill-rule:nonzero;stroke:none;stroke-width:1.70346"
             id="path22462" />
        </g>
        <g
           id="g22464"
           transform="translate(432.6123,370.2021)"
           style="stroke-width:1.70346">
          <path
             d="m 0,0 c 0.714,-3.906 0.758,-7.503 -2.096,-11.107 -5.178,-6.568 -12.603,-6.467 -17.868,-2.313 -5.721,4.52 -6.911,12.048 -2.238,17.961 1.997,2.538 5.094,3.612 5.671,4.352 0.602,0.758 0.212,1.476 -0.275,2.315 l 0.602,0.76 6.593,-5.207 -0.557,-0.697 c -3.228,0.944 -8.388,1.179 -10.929,-2.031 -3.246,-4.108 0.196,-8.615 4.958,-12.371 1.689,-1.339 4.526,-3.303 7.155,-3.684 2.963,-0.416 5.14,1.473 5.829,2.345 1.737,2.2 2.559,4.978 1.792,9.383 z"
             style="fill:#d7ceb5;fill-opacity:1;fill-rule:nonzero;stroke:none;stroke-width:1.70346"
             id="path22466" />
        </g>
        <g
           id="g22468"
           transform="translate(448.8818,391.1455)"
           style="stroke-width:1.70346">
          <path
             d="m 0,0 c -0.787,-1.539 -2.135,-1.435 -6.271,-0.956 l -20.374,2.308 -0.495,-0.877 13.216,-16.61 c 1.816,-2.257 2.633,-3.298 1.931,-5.123 l 0.778,-0.445 3.586,6.349 -0.787,0.441 c -0.663,-1.028 -1.601,-2.476 -2.791,-1.805 -0.497,0.285 -1.498,1.503 -3.256,3.652 l 3.968,7.032 c 1.25,-0.126 4.127,-0.428 4.973,-0.91 1.027,-0.579 0.742,-1.163 -0.192,-3.185 l 0.777,-0.445 5.717,10.13 z m -15.42,-11.908 -5.935,7.221 9.377,-1.129 z"
             style="fill:#d7ceb5;fill-opacity:1;fill-rule:nonzero;stroke:none;stroke-width:1.70346"
             id="path22470" />
        </g>
        <g
           id="g22472"
           transform="translate(195.8452,595.0224)"
           style="stroke-width:1.70346">
          <path
             d="m 0,0 c -0.193,-0.155 0.094,-0.713 -0.349,-0.751 0.424,-0.134 -0.018,-0.961 0.116,-1.33 -0.002,-1.574 -0.351,-3.114 -1.177,-4.247 0.038,-0.44 -0.369,-0.923 -0.829,-1.133 -0.846,-0.52 -1.54,-2.018 -2.807,-1.615 -0.426,0.923 -1.039,1.695 -1.366,2.694 -0.652,0.424 -1.595,1.405 -1.055,2.308 0.386,1.099 0.925,2.001 1.81,2.866 0.558,0.289 0.924,1.212 1.752,1.557 0.521,0.73 0.462,1.787 1.408,2.383 0.365,0.919 1.324,0.113 1.828,-0.118 C -0.153,1.767 -0.521,0.848 0,0 M 8.986,5.913 C 7.486,6.609 6.084,7.378 4.796,8.397 4.834,8.741 4.987,9.341 4.567,9.476 L 4.643,9.379 C 5.331,7.726 3.315,8.477 2.545,7.86 0.585,8.342 -1.108,8.095 -2.862,7.327 -4.209,6.253 -6.324,5.351 -7.228,3.525 -8.135,2.484 -7.904,0.617 -9.675,0.47 c -0.193,0.634 -1.135,0.827 -1.133,1.616 -0.671,0.251 -1.307,0.848 -2.058,0.407 -1.343,1.288 -2.904,-0.114 -4.286,0.042 L -18.33,1.44 c -2.018,-0.038 -2.001,-2.233 -2.578,-3.479 0.118,-0.537 -0.057,-1.31 0.42,-1.712 1.137,-0.042 1.907,-1.003 2.731,-1.448 1.079,0.231 0.98,-1.423 1.903,-1.003 -0.002,-0.784 -0.253,-1.46 -0.503,-2.131 -1.175,-1.096 -1.618,-2.711 -2.942,-3.614 -0.621,-1.598 -2.832,-2.576 -2.505,-4.363 0.113,-0.538 1.057,-0.731 1.649,-0.886 l -0.055,0.268 c 1.268,0.386 2.461,0.072 3.771,0.017 1.403,0.017 1.844,1.633 2.868,2.132 0.017,0.961 0.98,1.729 1.173,2.673 0.577,0.462 0.999,-0.461 1.307,-0.848 0.693,-0.868 1.324,-2.249 2.21,-2.962 0.152,-0.982 -0.558,-1.868 -1.176,-2.673 0.095,-0.714 -0.002,-1.578 0.361,-2.233 1.482,-0.868 2.696,0.575 4.079,0.42 1.02,-0.289 1.654,-0.886 2.172,-1.733 0.459,-1.364 2.461,-1.503 2.402,-2.807 l 0.346,-0.042 c 0.846,-1.058 2.189,-2.35 2.285,-3.849 0.52,-0.847 1.444,-0.423 2.096,-0.847 0.481,0.386 1.347,0.286 1.175,1.095 1.903,1.364 0.85,3.672 0.523,5.46 -0.651,1.212 -0.321,2.576 -1.708,3.52 0.212,0.328 -0.271,0.734 -0.422,0.928 -0.518,0.847 -0.841,1.846 -1.825,2.48 -1.039,0.117 -0.479,1.191 -1.421,1.384 -0.711,0.697 -1.384,1.733 -0.921,2.736 0.999,-0.465 1.154,0.919 1.922,0.747 0.426,0.655 1.292,1.343 2.214,1.767 0.772,0.617 0,1.578 0.35,2.329 -0.829,1.229 0.596,2.207 0.713,3.248 0.848,0.516 0.101,1.653 0.923,1.997 -0.111,0.542 0.62,0.81 0.754,1.23 C 5.806,0.223 6.865,0.277 7.346,0.663 9.211,0.105 8.153,2.413 9.1,3.009 9.022,3.106 8.927,3.03 8.927,3.03 8.791,3.395 9.061,3.45 9.255,3.605 9.349,4.469 9.889,5.375 8.986,5.913"
             style="fill:#d7ceb5;fill-opacity:1;fill-rule:nonzero;stroke:none;stroke-width:1.70346"
             id="path22474" />
        </g>
        <g
           id="g22476"
           transform="translate(182.2114,576.5717)"
           style="stroke-width:1.70346">
          <path
             d="M 0,0 C -0.655,0.419 -1.364,0.327 -2.077,0.23 -3.25,0.713 -4.423,-0.386 -5.772,0.117 -6.58,-0.055 -7.425,-0.575 -8.344,-0.206 c -1.102,-0.403 -1.66,-1.481 -1.698,-2.614 0.097,-0.709 0.749,-1.138 1.345,-1.288 1.213,0.65 1.578,-0.793 2.539,-0.81 0.825,0.344 1.517,-0.52 2.192,-0.772 1.903,-0.214 1.69,-2.904 3.649,-2.602 1.484,-0.076 2.73,-1.443 4.192,-0.906 1.135,0.746 0.85,2.098 1.236,3.193 -0.25,1.691 -1.42,2.173 -2.44,3.252 C 2.287,-1.486 0.365,-1.444 0,0"
             style="fill:#d7ceb5;fill-opacity:1;fill-rule:nonzero;stroke:none;stroke-width:1.70346"
             id="path22478" />
        </g>
        <g
           id="g22480"
           transform="translate(238.498,621.5053)"
           style="stroke-width:1.70346">
          <path
             d="m 0,0 c -1.139,-1.062 0.076,-4.024 -2.188,-4.108 -0.776,1.406 -1.123,2.463 -1.402,3.961 0.407,0.592 0.435,1.418 1.006,1.947 0.958,0.575 1.197,2.715 2.76,1.666 C 0.963,2.337 -0.562,1.234 0,0 m -6.431,-7.264 c -0.293,-0.541 -0.751,-1.024 -1.313,-1.279 -0.703,0.356 -0.661,1.456 -1.265,1.585 0.151,1.155 -1.309,1.977 -0.882,3.123 0.114,0.05 0.273,-0.013 0.385,0.042 l -0.049,0.109 -0.378,0.23 c 0.508,0.374 1.234,0.567 1.876,0.047 0.787,-1.129 0.951,-2.678 1.626,-3.857 m 25.625,9.4 C 18.787,3.03 18.093,3.664 17.043,3.588 15.904,2.526 14.249,4.07 13.428,2.614 12.705,2.421 12.04,2.388 11.273,2.581 9.761,1.75 7.558,1.826 6.563,0.155 5.615,-0.138 4.862,-1.162 3.712,-1.011 3.34,-0.503 3.311,0.16 3.33,0.713 3.666,0.865 4.207,0.566 4.287,1.284 5.338,1.355 4.792,3.139 5.904,3.374 6.169,4.578 6.265,5.841 5.642,6.912 4.908,7.927 3.98,6.693 3.107,6.836 2.331,6.752 2.35,7.302 2.094,7.864 1.112,8.229 0.372,7.482 -0.516,7.352 -0.881,6.37 -2.176,7.134 -2.375,6.093 -3.661,5.644 -3.934,4.163 -4.777,3.643 c -0.39,-0.042 -0.877,0.142 -0.806,0.579 -0.155,0.335 -0.419,0.621 -0.082,0.772 -0.208,0.449 -0.512,1.12 -1.167,1.368 -0.52,0.843 -1.529,0.382 -2.24,0.461 -1.561,-0.44 -3.303,-1.368 -3.697,-3.177 0.073,-1.048 1.502,-1.208 1.917,-1.829 1.419,-0.436 0.657,-1.733 0.292,-2.71 -0.944,-0.299 -0.292,-2.032 -1.647,-1.432 -0.161,0.063 -0.325,0.122 -0.214,0.172 -1.173,-0.398 -2.052,1.23 -3.12,0.609 -0.784,-0.357 -1.517,-0.831 -1.659,-1.703 0.186,-1 0.251,-2.326 1.393,-2.753 1.16,0.125 1.886,-1.167 2.864,-1.532 0.289,-1.225 1.326,-1.423 2.247,-1.951 -0.019,-0.555 1.062,-1.142 0.43,-1.834 -1.118,-0.512 -1.586,-1.272 -2.759,-1.666 -0.965,-0.848 -2.342,-0.802 -3.412,-1.423 -0.7,-1.133 -2.331,-0.529 -2.931,-1.88 -0.959,-0.575 -1.445,-1.88 -2.083,-2.849 0.317,-0.399 -0.101,-1.263 0.723,-1.297 0.441,-0.067 0.626,-1.065 1.031,-0.474 1.572,-0.772 3.08,-0.222 4.589,-1.154 1.745,-0.558 2.779,0.726 3.596,1.914 -0.154,0.336 -0.197,0.722 0.09,0.986 -0.634,0.797 0.627,0.697 0.434,1.418 1.781,0.541 1.563,2.207 3.085,3.034 0.772,0.084 0.812,1.184 1.382,1.716 0.344,0.428 0.743,0.743 1.333,0.336 0.186,-0.999 0.484,-1.947 -0.044,-2.866 0.474,-2.22 -1.912,-2.631 -2.092,-4.607 -0.978,-1.121 -1.127,-2.275 -1.941,-3.458 -1.068,-0.625 -0.946,-1.784 -1.853,-2.472 -0.564,-2.018 -3.195,-1.594 -4.028,-3.327 0.033,-0.663 0.002,-1.49 0.598,-1.897 1.202,-1.75 2.606,0.516 4.072,-0.034 0.244,0.655 0.814,1.188 1.058,1.838 0.999,0.185 1.3,0.999 1.659,1.704 1.601,0.054 1.729,2.144 3.227,2.421 1.06,0.349 0.554,1.746 1.503,2.04 0.023,0.553 0.694,0.86 0.713,1.409 l 0.325,-0.121 0.122,0.327 c 0.417,0.864 0.73,1.955 1.307,2.765 -0.141,0.609 0.642,0.966 0.225,1.587 0.192,0.767 0.006,1.762 0.096,2.757 -0.166,1.548 -1.33,2.908 -1.219,4.448 0.495,1.582 2.113,2.186 2.883,3.755 0.382,-0.235 0.675,0.306 1.011,0.462 1.265,-0.101 1.637,1.154 2.915,1.33 0.026,0.823 0.721,0.198 1.017,0.735 1.416,-0.437 2.574,1.179 3.974,0.189 0.548,-0.018 0.124,0.327 0.294,0.541 0.48,-0.453 0.837,0.252 1.376,-0.046 1.783,0.541 3.619,-0.513 5.145,0.587 0.459,0.483 1.397,0.504 1.749,1.204 0.299,0.546 0.542,1.196 0.836,1.738 -0.756,0.465 -0.401,1.17 -0.546,1.783"
             style="fill:#d7ceb5;fill-opacity:1;fill-rule:nonzero;stroke:none;stroke-width:1.70346"
             id="path22482" />
        </g>
        <g
           id="g22484"
           transform="translate(251.335,610.5825)"
           style="stroke-width:1.70346">
          <path
             d="m 0,0 -0.214,0.176 0.113,0.051 C 0.012,0.277 -0.051,0.113 0,0 M -7.151,0.256 C -7.378,0.151 -7.367,0.428 -7.415,0.537 -6.748,0.843 -6.566,1.334 -5.89,1.641 -6.452,1.385 -6.215,0.273 -7.151,0.256 m 8.84,2.279 C 0.323,2.853 -0.949,2.682 -2.277,2.614 -3.897,3.499 -5.351,1.347 -6.964,2.505 -8.275,1.229 -10.254,1.41 -11.821,0.697 c -1.089,-1.18 0.696,-2.124 0.994,-3.068 2.407,-0.528 4.335,-2.081 6.813,-2.17 0.59,-0.406 1.651,-0.058 2.018,-0.57 l 0.506,0.369 c 0.218,-0.172 0.877,-0.138 0.533,-0.57 0.927,-0.253 1.745,-0.554 2.608,-0.974 0.321,-0.395 0.749,-0.738 1.248,-0.651 l -0.124,-0.323 0.112,0.05 0.061,0.165 c 0.654,-0.244 1.124,-0.978 1.949,-1.008 0.388,0.042 1.439,0.113 1.569,0.718 0.837,0.248 0.323,1.364 0.995,1.674 C 7.998,-2.979 5.335,-1.893 4.253,0.181 3.77,0.638 3.057,2.207 1.689,2.535"
             style="fill:#d7ceb5;fill-opacity:1;fill-rule:nonzero;stroke:none;stroke-width:1.70346"
             id="path22486" />
        </g>
        <g
           id="g22488"
           transform="translate(302.2822,629.0166)"
           style="stroke-width:1.70346">
          <path
             d="M 0,0 C -0.241,0.122 0.006,0.37 0.006,0.491 0.251,0.487 0.251,0.37 0.371,0.365 0.371,-0.004 0.251,0.118 0,0 m -2.34,-0.113 c -2.715,-1.217 -4.284,4.582 -6.764,1.515 -0.004,-0.986 0.235,-1.972 0.229,-2.954 -0.376,-0.982 -1.23,-0.244 -1.971,-0.483 -0.74,0.004 -1.237,-0.856 -2.098,-0.726 -0.992,-0.856 -1.966,1.116 -2.956,-0.109 -0.124,0.126 -0.124,0.126 -0.246,0.126 -0.127,-0.248 -0.127,-0.369 -0.375,-0.86 -0.619,-0.735 -1.605,-0.978 -2.472,-1.096 -0.363,0.126 -0.363,0.495 -0.608,0.743 0.369,0.122 0.247,0.86 0.743,0.734 -0.248,0.248 0.002,0.617 0.002,0.865 0.249,0.243 0.126,0.243 0.127,0.491 h 0.126 l 0.12,0.121 c -0.241,0.248 0.372,0.366 0.376,0.613 0.61,-0.247 0.864,0.487 1.233,0.735 0.374,0.486 0.5,1.225 0.875,1.716 0.002,0.864 -0.61,1.481 -0.235,2.341 0.493,0.86 1.232,0.362 2.094,0.852 1.358,0.235 2.338,-1.368 3.695,-0.268 0.374,0.49 1.244,1.594 1.482,0.113 0.856,-0.374 1.346,-1.481 2.33,-1.49 0.487,-0.495 0.741,0.491 1.106,-0.004 0.984,-0.499 0.99,0.609 1.853,0.726 0.004,0.247 0.124,0.373 0.004,0.491 0.493,0.122 0.982,0.122 1.356,-0.126 -0.13,-0.743 0.608,-1.729 0.104,-2.467 0,0 -0.245,0 -0.245,-0.122 0.491,-0.369 0.119,-0.982 0.115,-1.477 m -16.183,-9.265 c -0.617,-0.122 -0.491,0.738 -0.732,1.233 0.126,0.982 1.356,0.852 1.979,1.347 0.484,-1.238 -0.504,-1.85 -1.247,-2.58 M 9.617,1.423 C 8.634,1.918 7.525,1.926 6.535,1.562 5.673,1.322 4.687,0.957 4.072,1.821 4.085,4.163 1.374,3.563 0.15,4.675 -0.464,5.296 0.524,5.661 0.771,6.152 1.018,6.026 1.023,6.396 1.023,6.643 H 1.267 C 2.125,5.157 3.117,7 4.349,6.5 4.597,7.113 5.331,6.618 5.585,7.23 5.958,8.708 4.489,9.824 3.632,11.062 H 2.896 C 2.402,11.07 1.909,10.701 1.538,10.579 0.682,11.326 -0.067,10.344 -1.05,10.47 -2.53,9.614 -4.131,9.01 -5.619,8.401 -6.232,8.405 -6.849,8.41 -7.337,8.905 l 0.371,0.243 -0.245,0.373 -0.126,-0.369 c -0.122,-0.121 -0.122,0 -0.244,0.126 -0.617,0.248 -0.988,-0.243 -1.355,-0.365 -1.112,-0.365 -0.997,-1.469 -1.373,-2.329 -0.977,0.865 -1.833,2.35 -3.311,2.849 -1.479,-0.36 -3.201,-0.721 -3.95,-2.194 -1.473,0.252 -2.587,-0.848 -3.947,-1.33 -0.988,-0.739 -2.096,0.008 -2.832,0.629 -1.475,-0.118 -2.835,-0.848 -4.071,-1.578 -0.125,-0.491 0.12,-0.864 0.239,-1.233 1.836,-1.859 3.8,-3.345 6.136,-3.852 0.738,-0.496 0.239,-1.23 0.236,-1.973 -0.616,-0.365 -0.749,-1.72 -1.856,-1.465 -1.606,-0.729 0.478,-2.467 -1.125,-3.445 -1.362,-1.099 -1.377,-3.193 -3.225,-3.676 0.237,-1.477 -1.491,-2.576 -2.112,-3.558 -1.967,0.873 -2.839,-0.969 -4.199,-1.825 -0.002,-0.491 -0.004,-0.987 0.237,-1.477 0.367,-0.252 0.858,-0.748 1.477,-0.5 0.365,-0.743 0.978,-1.607 0.969,-2.472 -0.006,-1.229 1.351,-0.994 2.088,-1.363 1.108,-0.252 1.238,0.978 1.977,1.343 1.353,-0.5 1.242,1.346 2.226,1.464 0.994,1.843 0.644,4.923 2.742,6.143 1.225,-1.485 0.353,-3.575 1.45,-5.06 0.124,-0.122 0.739,-0.617 0.491,-0.743 0.491,-0.247 1.233,0.365 1.727,0.239 0.367,0.122 0.495,0.617 0.373,0.982 0.497,0.861 0.378,1.846 0.508,2.833 0.245,0.243 0.497,0.86 0.986,0.486 1.357,-0.134 1.242,1.716 2.593,1.339 0.5,0.491 1.853,0.482 1.368,1.716 0.128,0.987 -1.475,0.873 -1.101,2.103 0.13,0.486 0.38,1.103 1.12,1.221 -0.241,0.99 1.356,0.486 1.116,1.594 0.863,-0.126 1.975,0.236 2.707,-0.503 0.365,-0.743 0.85,-1.855 0.233,-2.59 -0.388,-2.584 -0.647,-5.291 -2.138,-7.376 -0.13,-0.861 -0.992,-1.352 -0.873,-2.212 -0.011,-1.846 1.846,-0.382 2.704,-0.755 l 0.007,0.495 c 1.609,2.329 4.454,4.285 4.104,7.734 0.747,1.103 0.883,2.828 0.761,4.057 0.128,0.739 -0.117,1.356 -0.111,2.221 0.124,0.243 0.128,0.981 0.621,0.734 l -0.119,0.617 c 0.491,0.121 0.126,0.369 0.369,0.738 0.252,-0.004 0.619,0.239 0.745,-0.008 0.117,-0.613 0.737,-0.248 0.98,-0.252 -0.243,-0.244 -0.25,-0.613 0.119,-0.734 -0.254,-1.234 -0.258,-2.833 -0.64,-4.067 1.108,-0.738 -0.014,-2.337 0.852,-3.201 -0.388,-2.338 -0.52,-4.432 -0.044,-6.652 0.12,-0.985 -1.109,-1.103 -0.996,-2.089 0.862,-0.743 0.727,-1.851 1.836,-2.472 0.367,0.122 0.734,-0.13 0.979,-0.373 0.376,0.121 0.866,-0.009 0.986,0.487 0.867,-0.378 1.119,0.73 1.977,0.603 -0.359,1.725 1.252,3.072 0.89,4.797 -0.49,0.621 0.006,1.355 0.133,1.972 -0.975,1.608 0.386,3.076 -0.091,4.801 -0.614,0.99 -0.241,2.094 -0.236,3.08 -0.484,1.234 -0.6,2.715 -0.469,4.066 0.006,0.495 0.621,0.735 1.114,0.613 0.245,-0.126 0.243,-0.495 0.367,-0.621 0.618,0.86 1.597,-0.499 2.58,-0.508 0.986,0.365 2.34,0.235 2.717,1.586 0.009,1.234 0.137,2.338 -0.468,3.454"
             style="fill:#d7ceb5;fill-opacity:1;fill-rule:nonzero;stroke:none;stroke-width:1.70346"
             id="path22490" />
        </g>
        <g
           id="g22492"
           transform="translate(336.1689,619.2392)"
           style="stroke-width:1.70346">
          <path
             d="M 0,0 C 0.816,0.315 1.312,-0.986 2.163,-0.285 2.738,-0.814 2.965,0.302 3.385,0.65 3.727,0.504 4.326,0.642 4.415,1.138 4.839,1.49 5.528,2.128 6.091,1.88 6.613,2.455 7.525,2.992 7.589,4.045 7.075,5.619 8.351,6.668 8.389,8.271 L 8.199,8.758 C 6.332,10.932 4.352,7.369 2.108,8.091 1.173,6.891 0.011,5.791 -0.703,4.486 -1.852,4.327 -1.727,2.791 -2.413,2.149 -2.852,0.86 -0.703,0.852 0,0"
             style="fill:#d7ceb5;fill-opacity:1;fill-rule:nonzero;stroke:none;stroke-width:1.70346"
             id="path22494" />
        </g>
        <g
           id="g22496"
           transform="translate(349.9873,613.6459)"
           style="stroke-width:1.70346">
          <path
             d="m 0,0 c -0.824,-0.042 -1.802,-0.415 -2.549,0.323 -0.327,1.087 -1.14,1.985 -0.756,3.164 0.265,0.286 1.091,0.323 1.065,0.873 -0.186,0.487 0.74,0.751 0.662,1.187 0.25,0.567 0,1.213 0.59,1.628 0.111,-0.05 0.336,-0.15 0.548,0.026 0.562,-0.248 0.035,-0.827 0,-1.213 C -0.988,4.75 -2.761,3.785 -1.861,2.173 -0.976,2.047 -0.661,1.238 0.109,1.162 0.233,0.835 0.424,0.348 0,0 m 14.639,-22.266 c 0.623,0.802 0.898,2.027 0.522,3.001 -0.31,0.814 -1.164,0.113 -1.575,0.701 -1.089,0.889 -0.328,2.299 -0.217,3.462 0.855,0.7 0.137,1.825 0.15,2.765 0.566,0.961 0.95,2.136 0.626,3.222 -0.272,1.205 -1.176,1.603 -2.126,1.889 -0.664,0.025 -1.361,-0.336 -1.677,-0.739 0.592,-2.01 -0.745,-4.112 -0.619,-5.652 -0.711,-1.301 0.5,-2.509 -0.489,-3.823 -0.575,-0.688 -1.127,0.5 -1.826,0.134 -1.124,0.5 -1.964,0.739 -3.086,1.238 -2.188,2.052 -5.426,0.521 -6.556,3.449 -0.517,1.574 0.749,2.9 1.81,3.777 0.017,0.94 0.888,-0.126 0.963,0.651 1.401,0.726 2.564,1.825 4.09,2.228 0.426,0.348 0.293,0.948 0.212,1.389 -0.288,1.473 -1.799,2.01 -2.892,2.9 C 1.914,-0.852 0.915,-0.676 1.036,0.214 1.313,1.435 2.675,0.562 3.275,0.696 3.802,0.063 4.313,-0.298 5.252,-0.31 5.738,-0.126 6.863,-0.625 6.814,0.474 6.827,1.414 6.026,2.039 5.822,2.799 4.737,3.689 2.74,2.824 2.333,4.352 2.476,4.964 3.714,5.627 3.175,6.538 3.435,8.04 5.073,7.18 6.038,7.83 L 6.162,7.503 C 6.271,7.448 6.374,7.679 6.485,7.629 6.601,7.578 6.876,7.591 6.886,7.314 7.727,7.079 8.401,6.777 8.976,6.253 9.626,4.079 6.746,5.489 6.376,4.041 6.127,3.479 6.527,3.164 6.767,2.791 7.602,2.551 8.202,1.477 9.291,1.8 9.494,1.041 10.281,1.901 10.516,1.527 l 0.252,-0.65 c 0.299,-0.537 0.834,-0.239 1.273,-0.16 0.697,0.361 1.704,0.185 2.577,0.336 0.598,0.139 0.57,0.688 0.775,1.141 -0.364,0.697 -0.28,2.409 -1.438,2.522 -0.088,0.714 -1.054,1.276 -0.754,1.952 L 13.252,6.781 13.141,6.832 13.093,6.718 C 12.402,8.506 10.178,8.955 8.86,9.941 8.21,9.689 7.476,10.155 6.647,10.117 c -0.472,0.747 -0.17,1.423 0.065,2.262 0.436,1.288 -1.491,1.2 -1.164,2.539 -0.29,0.26 -0.563,0.252 -0.645,0.688 -1.334,0.323 -2.497,0.437 -3.686,1.099 -0.598,-0.138 -1.362,-0.34 -1.721,-0.851 -0.566,-0.966 0.723,-1.402 0.599,-2.292 0.362,-0.696 0.786,-1.56 0.551,-2.4 -1.172,-0.826 -2.824,0.315 -4.057,0.864 -0.897,0.126 -1.184,-0.826 -1.77,-1.237 L -4.84,9.421 C -4.182,9.4 -4.366,8.673 -4.187,8.464 -4.503,6.848 -5.755,6.458 -6.816,5.585 -7.715,4.771 -9.867,4.779 -9.354,3.21 -9.005,2.782 -8.342,2.757 -7.965,2.996 -7.117,2.484 -5.627,3.71 -5.503,2.17 -5.4,1.183 -6.378,0.806 -7.014,0.281 -7.503,0.096 -7.954,0.298 -8.506,0.269 c -0.583,-0.412 -1.171,0.39 -1.772,0.247 -0.974,-0.373 -2.114,0.403 -3.15,0.189 -1.324,0.05 -2.713,0.264 -3.848,1.036 -0.715,-0.088 -1.57,0.424 -2.329,0.227 -1.026,-1.704 1.212,-2.43 1.548,-3.789 1.498,-0.26 2.065,-1.725 3.557,-1.713 0.562,0.961 1.599,-0.037 1.882,0.915 0.791,-0.352 1.595,0.24 2.477,0.114 0.336,-0.151 0.464,-0.474 0.314,-0.81 -1.184,-0.554 -2.21,-2.254 -3.878,-2.056 -2.149,-1.201 -4.65,-0.764 -6.821,-0.202 -0.701,0.848 -1.705,-0.189 -2.522,-0.231 -1.224,0 -1.989,1.293 -2.954,1.855 -0.793,0.349 -1.719,0.084 -2.178,0.558 -0.313,-0.398 -1.106,-0.046 -1.525,-0.398 -0.867,-0.424 -0.202,-1.666 -0.791,-2.073 l 0.115,-0.051 c 0.103,0.223 0.279,0.009 0.336,-0.151 -0.54,-1.515 1.613,-1.527 1.937,-2.614 1.628,0.625 2.565,-0.6 3.969,-1.087 1.06,-0.335 2.149,-0.008 3.24,-0.902 0.547,0.029 1.074,0.604 1.521,0.407 0.85,-1.729 2.251,0.214 3.388,-0.562 0.84,-0.239 1.49,0.012 2.166,-0.29 0.513,0.852 1.648,0.075 1.827,1.078 0.772,-0.075 0.835,0.978 1.546,1.062 1.45,-0.373 1.536,1.339 2.274,2.09 0.716,0.088 0.964,0.651 1.331,1.162 1.309,0.227 1.506,1.889 2.343,2.867 0.827,0.037 0.951,0.922 1.878,1.187 0.646,0.252 0.802,-0.626 1.236,-0.55 0.277,-1.2 -1.074,-1.813 -1.416,-2.874 -1.817,-2.291 -3.277,-5.279 -4.581,-8.204 -0.163,-1.28 1.191,-1.876 1.668,-2.627 1.585,-0.977 2.489,-2.585 4.487,-2.937 1.052,-0.059 1.916,-0.848 2.93,-1.301 1.37,-1.15 3.326,-1.611 4.696,-2.757 1.332,-0.055 2.407,-0.663 3.565,-0.776 0.686,-0.575 1.217,-1.213 1.416,-1.977 0.239,-0.373 0.963,-0.558 1.337,-0.323 0.38,1.448 2.223,1.976 1.926,3.726"
             style="fill:#d7ceb5;fill-opacity:1;fill-rule:nonzero;stroke:none;stroke-width:1.70346"
             id="path22498" />
        </g>
        <g
           id="g22500"
           transform="translate(408.8848,588.5771)"
           style="stroke-width:1.70346">
          <path
             d="M 0,0 -0.239,-0.961 C -0.934,-1.15 -1.616,-1.687 -2.411,-1.267 -3.032,-0.843 -2.17,-0.479 -2.354,0.042 -1.662,0.403 -0.535,0.512 0,0 m -31.018,0.579 0.003,-0.172 c 0.346,0.18 0.963,-0.243 1.305,-0.063 1.307,0.118 2.688,0.667 3.27,1.985 1.018,1.414 1.681,2.996 3.06,3.722 0.943,0.978 1.949,2.74 3.44,2.161 2.271,-0.302 0.508,-3.563 2.702,-4.125 0.597,0.273 1.145,-0.759 1.827,-0.05 0.625,-0.768 1.672,-0.923 2.623,-0.642 1.219,0.025 2.242,1.091 3.098,1.809 0.252,0.264 0.699,0.012 0.706,-0.336 1.141,-0.235 1.6,-1.536 2.223,-2.308 0.439,-0.076 0.428,0.449 0.519,0.537 L -5.455,2.677 -5.632,2.673 C -5.879,2.404 -6.412,2.568 -6.399,2.048 -5.613,1.977 -6.118,0.919 -5.248,0.94 -5.407,0.239 -4.786,-0.185 -4.772,-0.877 -5.453,-1.59 -6.509,-1.263 -7.294,-1.196 -7.665,0.021 -9.236,0.16 -9.956,1.192 c -0.965,0.415 -2.13,2.043 -2.799,0.638 0.108,-0.957 0.302,-1.998 1.272,-2.413 0.197,-1.217 1.498,-0.928 2.297,-1.519 0.606,0.101 0.971,-0.764 1.492,-0.755 0.268,-0.257 1.307,-0.06 0.975,-0.764 0.695,0.188 0.972,-0.592 1.574,-0.487 0.791,-0.076 1.119,0.806 1.456,1.335 0.342,0.18 0.873,0.016 1.212,0.373 0.089,-0.26 0.707,-0.336 0.544,-0.861 l 0.168,0.177 c 0.703,-0.16 1.314,-0.407 1.926,-0.483 L 0.168,-3.739 C 0.959,-4.331 1.498,-5.195 2.549,-5.346 2.914,-6.034 3.694,-5.929 4.143,-6.529 5.11,-7.121 5.78,-5.887 6.21,-5.271 6.537,-4.389 5.576,-4.15 5.384,-3.457 4.938,-3.03 5.36,-2.236 5.967,-2.14 6.131,-1.616 5.939,-0.923 5.671,-0.491 4.622,-0.34 3.74,0.168 2.945,0.936 2.892,3.198 0.306,1.926 -0.506,3.387 c -0.477,1.997 0.682,4.98 -1.697,6.24 -2.806,0.985 -1.335,-2.817 -2.709,-3.719 -1.049,0.156 -2.196,0.915 -3.173,1.855 -0.01,0.521 -0.113,1.129 -0.56,1.557 -0.531,0.336 -0.969,0.76 -1.666,0.571 -0.499,-1.054 -1.527,-1.771 -2.65,-2.405 -0.87,-0.021 -1.809,-0.818 -2.693,-0.142 0.155,0.872 -0.477,1.993 0.38,2.706 1.204,0.722 2.848,1.015 4.084,0.172 0.79,-0.071 1.473,0.642 2.162,1.003 0.421,0.617 -0.288,1.301 0.044,2.006 -0.221,2.43 -2.669,2.904 -4.094,4.268 -2.436,-0.223 -3.976,2.79 -6.418,2.916 -3.901,-0.864 0.51,-3.559 0.115,-5.573 0.292,-1.3 1.697,-1.968 2.665,-2.555 0.004,-0.177 0.185,-0.52 0.006,-0.525 0.183,-0.168 -0.067,-0.608 -0.239,-0.789 -0.693,-0.188 -1.37,-1.07 -2.167,-0.654 -0.811,1.464 -1.452,2.933 -2.782,4.037 -1.318,0.583 -1.715,-1.255 -2.401,-1.792 -1.37,-0.898 -1.677,-3.172 -3.231,-3.727 -1.255,-2.723 -5.138,-4.284 -6.122,-7.268 0.541,-0.86 1.682,-1.095 2.634,-0.99"
             style="fill:#d7ceb5;fill-opacity:1;fill-rule:nonzero;stroke:none;stroke-width:1.70346"
             id="path22502" />
        </g>
        <g
           id="g22504"
           transform="translate(395.3789,584.4692)"
           style="stroke-width:1.70346">
          <path
             d="M 0,0 C 0,0.348 0.079,0.608 -0.186,0.864 -0.015,0.869 0.256,0.612 0.342,0.352 0.176,0.176 0.526,0.008 0.619,-0.076 0.449,-0.428 0.267,-0.084 0,0 m 10.814,-21.464 c 0.761,0.973 1.001,2.111 1.063,3.071 0.336,0.701 0.407,1.314 1.194,1.591 1.286,0.637 0.825,1.934 1.681,2.824 -0.195,1.037 -1.324,0.927 -2.117,1.347 -0.862,-0.541 -1.813,-0.823 -2.231,-1.787 -1.732,-0.382 -2.389,-2.313 -3.942,-3.043 -0.17,-0.176 -0.7,-0.013 -0.866,-0.193 -0.603,-0.445 -1.31,0.059 -1.922,0.311 -0.815,1.464 -2.239,2.824 -3.901,3.226 -0.184,0.521 -0.541,0.861 -0.982,1.113 -0.875,0.159 -1.323,0.755 -2.198,1.087 -1.41,0.667 -0.651,2.164 -0.592,3.297 1.034,0.37 1.443,1.684 2.753,1.624 0.09,-0.084 0.266,-0.079 0.178,-0.167 1.229,-0.323 2.716,-0.902 3.564,0.331 0.155,0.877 -0.207,1.742 -0.488,2.518 0.417,0.789 -0.636,1.293 -0.04,1.914 0.241,0.964 0.864,0.193 1.295,0.81 0.616,-0.596 1.16,-1.629 2.112,-1.348 1.326,-0.579 1.354,-2.152 2.252,-3.176 0.43,0.096 0.436,-0.424 0.788,-0.592 0.267,-0.084 0.624,-0.6 0.88,-0.155 0.61,-0.252 0.952,-0.072 1.382,0.373 0.562,2.191 -1.393,4.067 -3.147,4.725 -2.031,1.264 -3.965,2.27 -5.992,3.362 -2.47,1.514 -4.933,2.685 -7.148,4.469 -1.308,0.059 -2.22,2.131 -3.595,1.229 -1.37,-1.246 0.473,-1.989 0.327,-3.214 0.557,-1.729 2.287,-0.999 3.431,-1.758 0.963,-0.244 1.587,-0.84 2.291,-1.347 0.179,0.004 0.348,0.357 0.611,0.1 l 0.004,-0.172 c -1.815,-0.65 -4.18,-0.088 -6.173,-0.39 l -1.231,0.323 c -2.611,-0.231 -5.323,0.499 -7.944,0.97 -1.046,-0.026 -2.111,0.998 -3.134,0.109 -0.424,-0.622 -0.67,-1.411 -0.572,-2.191 0.71,-0.508 0.21,-1.565 1.092,-1.892 0.344,0.008 0.52,0.008 0.862,0.192 0.523,0.009 1.124,0.458 1.398,-0.146 0.205,-1.389 1.579,-0.491 2.454,-0.647 l 0.267,-0.255 c 0.694,0.012 1.302,0.113 1.993,0.302 0.785,0.1 1.158,-1.28 2.195,-0.567 0.848,1.238 2.184,-0.562 3.3,0.072 0.621,-0.248 1.479,0.289 2.099,-0.135 l 1.999,0.135 c 0.862,0.364 1.649,0.466 2.345,0.306 0.274,-0.605 -0.336,-0.877 -0.585,-1.318 -1.726,-0.562 -3.271,-1.813 -4.731,-2.799 -0.685,-0.537 -0.573,-1.666 -1.085,-2.37 -0.722,-3.068 1.763,-5.103 3.636,-7.244 0.71,-0.856 1.855,-1.271 2.054,-2.484 1.234,-0.671 1.785,-2.228 2.938,-2.987 1.067,-1.196 2.4,-2.476 3.39,-3.936 0.795,-0.768 1.829,-0.051 2.874,-0.03 0.87,0.021 1.283,1.158 2.156,1.179 0.849,1.062 2.486,1.88 1.758,3.433"
             style="fill:#d7ceb5;fill-opacity:1;fill-rule:nonzero;stroke:none;stroke-width:1.70346"
             id="path22506" />
        </g>
        <g
           id="g22508"
           transform="translate(263.8291,344.4667)"
           style="stroke-width:1.70346">
          <path
             d="m 0,0 -14.664,4.65 0.271,0.847 C -9.874,4.02 -9.318,5.354 -8.626,7.54 l 4.302,13.55 c 0.279,0.873 0.772,2.426 -0.754,2.908 -0.547,0.177 -2.009,0.177 -3.488,0.139 l 0.291,0.919 11.074,0.705 0.665,-0.21 L -2.904,5.492 C -3.653,3.13 -3.605,2.068 0.269,0.843 Z"
             style="fill:#ffffff;fill-opacity:1;fill-rule:nonzero;stroke:none;stroke-width:1.70346"
             id="path22510" />
        </g>
        <g
           id="g22512"
           transform="translate(273.0713,341.9736)"
           style="stroke-width:1.70346">
          <path
             d="m 0,0 c 12.36,-0.055 18.827,6.45 19.46,13.139 0.844,8.825 -4.636,11.46 -8.314,11.808 C 3.793,25.643 1.649,19.542 1.46,17.558 0.863,11.229 5.302,9.404 8.122,9.14 8.856,9.064 9.473,9.047 10.099,9.098 10.715,9.11 11.305,9.24 11.943,9.476 9.203,2.724 4.247,1.306 0.093,0.961 Z m 7.86,18.988 c 0.279,2.905 0.493,5.221 2.988,4.99 2.53,-0.248 2.929,-2.581 2.242,-9.824 -0.079,-0.847 -0.503,-2.698 -0.683,-3.273 -0.07,-0.289 -1.188,-0.369 -1.839,-0.306 -2.821,0.264 -3.21,3.122 -2.708,8.413"
             style="fill:#ffffff;fill-opacity:1;fill-rule:nonzero;stroke:none;stroke-width:1.70346"
             id="path22514" />
        </g>
        <g
           id="g22516"
           transform="translate(315.7627,342.7246)"
           style="stroke-width:1.70346">
          <path
             d="m 0,0 -16.956,-1.942 -0.096,0.843 c 5.877,7.104 10.254,12.509 9.756,16.844 -0.121,1.027 -1.195,4.615 -5.392,4.133 -0.938,-0.105 -3.436,-0.616 -4.593,-3.869 l -1.141,-0.134 c 0.571,2.182 2.362,7.855 8.109,8.518 2.527,0.286 7.686,-0.419 8.326,-5.997 0.124,-1.061 0.445,-3.851 -3.749,-8.383 l -5.95,-6.409 6.157,0.705 c 4.318,0.5 4.639,0.907 5.5,3.534 L 0.95,7.952 Z"
             style="fill:#ffffff;fill-opacity:1;fill-rule:nonzero;stroke:none;stroke-width:1.70346"
             id="path22518" />
        </g>
        <g
           id="g22520"
           transform="translate(328.1377,351.7597)"
           style="stroke-width:1.70346">
          <path
             d="M 0,0 C -0.869,2.556 -0.416,3.919 0.214,5.883 3.393,5.207 6.426,4.553 7.396,1.69 7.704,0.78 8.778,-2.404 5.322,-3.575 2.799,-4.432 0.85,-2.514 0,0 M -1.742,20.117 C -7.963,18.015 -9.56,14.158 -8.458,10.901 -7.472,7.998 -4.268,6.71 -0.851,6.232 -3.208,4.607 -5.968,2.157 -4.686,-1.653 c 1.308,-3.848 5.917,-4.549 10.114,-3.131 5.559,1.88 8.216,5.82 6.73,10.193 -1.101,3.252 -4.412,4.86 -8.365,5.51 1.926,1.351 4.649,3.676 3.641,6.646 -0.674,1.997 -3.267,4.545 -9.176,2.552 M -4.247,14.98 c -0.482,1.436 0.325,3.265 2.224,3.908 2.878,0.977 4.303,-1.314 4.906,-3.098 0.711,-2.094 0.293,-3.172 -0.236,-4.557 -0.444,0.042 -5.798,0.492 -6.894,3.747"
             style="fill:#ffffff;fill-opacity:1;fill-rule:nonzero;stroke:none;stroke-width:1.70346"
             id="path22522" />
        </g>
        <g
           id="g22524"
           transform="translate(270.9209,414.666)"
           style="stroke-width:1.70346">
          <path
             d="m 0,0 11.632,12.32 29.091,-27.305 c 3.284,-3.11 3.35,-8.388 0.134,-11.787 -1.5,-1.595 -5.843,-6.156 -5.843,-6.156 0,0 -4.175,3.97 -5.925,5.618 z"
             style="fill:#215698;fill-opacity:1;fill-rule:nonzero;stroke:none;stroke-width:1.70346"
             id="path22526" />
        </g>
        <g
           id="g22528"
           transform="translate(280.0059,534.684)"
           style="stroke-width:1.70346">
          <path
             d="m 0,0 c -3.743,3.689 -4.114,9.374 -0.831,12.711 1.469,1.49 5.946,6.034 5.946,6.034 0,0 4.709,-4.637 6.775,-6.672 l 26.246,-26.185 -11.89,-12.069 z"
             style="fill:#215698;fill-opacity:1;fill-rule:nonzero;stroke:none;stroke-width:1.70346"
             id="path22530" />
        </g>
        <g
           id="g22532"
           transform="translate(296.4531,498.6298)"
           style="stroke-width:1.70346">
          <path
             d="M 0,0 -12.586,11.884 -24.231,-0.449 -11.649,-12.333 Z"
             style="fill:#215698;fill-opacity:1;fill-rule:nonzero;stroke:none;stroke-width:1.70346"
             id="path22534" />
        </g>
        <g
           id="g22536"
           transform="translate(295.3159,457.0737)"
           style="stroke-width:1.70346">
          <path
             d="M 0,0 -12.581,11.888 -24.229,-0.445 -11.645,-12.329 Z"
             style="fill:#215698;fill-opacity:1;fill-rule:nonzero;stroke:none;stroke-width:1.70346"
             id="path22538" />
        </g>
        <g
           id="g22540"
           transform="translate(316.5264,479.5366)"
           style="stroke-width:1.70346">
          <path
             d="m 0,0 -12.583,11.88 -11.646,-12.329 12.582,-11.88 z"
             style="fill:#215698;fill-opacity:1;fill-rule:nonzero;stroke:none;stroke-width:1.70346"
             id="path22542" />
        </g>
        <g
           id="g22544"
           transform="translate(315.8301,437.5654)"
           style="stroke-width:1.70346">
          <path
             d="M 0,0 -12.585,11.884 -24.226,-0.445 -11.645,-12.329 Z"
             style="fill:#215698;fill-opacity:1;fill-rule:nonzero;stroke:none;stroke-width:1.70346"
             id="path22546" />
        </g>
        <g
           id="g22548"
           transform="translate(321.8174,503.9462)"
           style="stroke-width:1.70346">
          <path
             d="m 0,0 c 3.605,3.815 3.771,9.513 0.374,12.723 -1.523,1.444 -6.158,5.817 -6.158,5.817 0,0 -4.536,-4.801 -6.534,-6.912 l -41.004,-43.419 c -3.605,-3.814 -3.77,-9.517 -0.369,-12.727 1.592,-1.507 6.19,-5.812 6.19,-5.812 0,0 4.578,4.876 6.5,6.907 z"
             style="fill:#4181ae;fill-opacity:1;fill-rule:nonzero;stroke:none;stroke-width:1.70346"
             id="path22550" />
        </g>
        <g
           id="g22552"
           transform="translate(321.5215,544.0878)"
           style="stroke-width:1.70346">
          <path
             d="m 0,0 c 3.496,3.701 3.571,9.303 0.17,12.518 -1.523,1.435 -6.157,5.816 -6.157,5.816 0,0 -4.399,-4.658 -6.328,-6.702 l -39.746,-42.08 c -3.493,-3.701 -3.569,-9.307 -0.166,-12.518 1.593,-1.506 6.188,-5.807 6.188,-5.807 0,0 4.439,4.725 6.296,6.689 z"
             style="fill:#4181ae;fill-opacity:1;fill-rule:nonzero;stroke:none;stroke-width:1.70346"
             id="path22554" />
        </g>
        <g
           id="g22556"
           transform="translate(321.127,461.9794)"
           style="stroke-width:1.70346">
          <path
             d="m 0,0 c 3.605,3.818 3.768,9.513 0.367,12.727 -1.52,1.44 -6.157,5.816 -6.157,5.816 0,0 -4.534,-4.805 -6.527,-6.911 l -41.009,-43.423 c -3.605,-3.819 -3.77,-9.518 -0.369,-12.731 1.592,-1.503 6.189,-5.808 6.189,-5.808 0,0 4.578,4.88 6.496,6.906 z"
             style="fill:#4181ae;fill-opacity:1;fill-rule:nonzero;stroke:none;stroke-width:1.70346"
             id="path22558" />
        </g>
        <g
           id="g22560"
           transform="translate(320.6113,421.0234)"
           style="stroke-width:1.70346">
          <path
             d="m 0,0 c 3.491,3.701 3.564,9.303 0.17,12.518 -1.525,1.431 -6.164,5.815 -6.164,5.815 0,0 -4.399,-4.657 -6.328,-6.701 l -39.741,-42.088 c -3.498,-3.701 -3.574,-9.304 -0.168,-12.514 1.592,-1.507 6.189,-5.807 6.189,-5.807 0,0 4.436,4.724 6.297,6.688 z"
             style="fill:#4181ae;fill-opacity:1;fill-rule:nonzero;stroke:none;stroke-width:1.70346"
             id="path22562" />
        </g>
      </g>
    </g>
  </g>
</svg>
